<?xml version="1.0" encoding="UTF-8"?>
<svg version="1.1" xmlns="http://www.w3.org/2000/svg" width="1520" height="939">
<path d="M0 0 C-3.09777223 1.7006482 -6.0575367 2.61996076 -9.48828125 3.4453125 C-10.57560547 3.71327637 -11.66292969 3.98124023 -12.78320312 4.25732422 C-13.94787109 4.54365723 -15.11253906 4.82999023 -16.3125 5.125 C-46.99869181 12.91147751 -75.00160107 23.91654803 -99 45 C-99.62003906 45.53625 -100.24007813 46.0725 -100.87890625 46.625 C-122.23472877 66.44478888 -130.75759678 96.22274367 -132.28515625 124.421875 C-133.78248022 170.97746058 -115.48923785 214.86228693 -98 257 C-87.5429993 282.21494333 -77.61585279 307.18205057 -72 334 C-71.63068359 335.64162109 -71.63068359 335.64162109 -71.25390625 337.31640625 C-69.82858486 344.69858806 -69.76883028 352.12951452 -69.6875 359.625 C-69.66969482 360.67461914 -69.65188965 361.72423828 -69.63354492 362.80566406 C-69.64791295 376.8774873 -74.20853143 390.83112615 -84.03515625 401.1953125 C-100.86269529 416.65122311 -121.93526414 418.96749317 -143.81201172 418.1640625 C-180.79441576 416.26084796 -215.64139414 404.35792965 -249.02325439 388.91442871 C-251.24493699 387.88669386 -253.46787904 386.86171171 -255.69091797 385.83691406 C-269.94606802 379.26278482 -269.94606802 379.26278482 -276.34912109 376.28125 C-284.8312344 372.33754541 -293.3175922 368.48761152 -302 365 C-302 364.34 -302 363.68 -302 363 C-301.04335449 362.98018066 -300.08670898 362.96036133 -299.10107422 362.93994141 C-295.48138267 362.86267773 -291.8620317 362.77417046 -288.24267578 362.68261719 C-286.68935978 362.64481738 -285.13597069 362.60988886 -283.58251953 362.578125 C-261.45652955 362.14653967 -261.45652955 362.14653967 -241.0625 354.25 C-237.09102424 349.91748099 -235.68243134 345.22908732 -235.875 339.375 C-237.38149031 328.74769334 -244.09198426 318.90728846 -251 311 C-251.99966797 309.82050781 -251.99966797 309.82050781 -253.01953125 308.6171875 C-292.69149668 263.01229751 -354.15251021 240.39740905 -410 222 C-410 221.67 -410 221.34 -410 221 C-346.56821417 213.12658514 -282.67809108 231.5775565 -232 270 C-227.54314377 273.5259202 -223.25711282 277.23696505 -219 281 C-218.07574219 281.81339844 -217.15148437 282.62679688 -216.19921875 283.46484375 C-214.12442062 285.30086262 -212.05744062 287.14458198 -210 289 C-212.17493213 283.17578271 -214.37950096 277.37778298 -216.8671875 271.6796875 C-223.67191885 256.08194902 -228.95531356 240.20755522 -232.8125 223.625 C-233.00739014 222.79508545 -233.20228027 221.9651709 -233.40307617 221.11010742 C-236.51082755 207.03688335 -237.38156117 193.10715218 -237.3125 178.75 C-237.30926727 177.53426804 -237.30926727 177.53426804 -237.30596924 176.29397583 C-237.25361734 164.00171946 -236.90088845 152.00295149 -234 140 C-233.80664062 139.19433594 -233.61328125 138.38867188 -233.4140625 137.55859375 C-224.85402485 103.37128289 -203.96700662 74.03982463 -175 54 C-174.34531738 53.54447754 -173.69063477 53.08895508 -173.01611328 52.61962891 C-129.14757344 22.54328476 -76.26690104 10.31791404 -24.5 2.0625 C-23.50297562 1.90077301 -23.50297562 1.90077301 -22.48580933 1.73577881 C-14.93984635 0.5233689 -7.64794219 -0.33053534 0 0 Z " fill="#D29328" transform="translate(964,0)"/>
<path d="M0 0 C4.41831771 0.7854787 6.24142098 3.98914943 8.8125 7.5 C10.43352629 10.19969898 11.794419 12.98726138 13.1328125 15.8359375 C13.51332764 16.62350433 13.89384277 17.41107117 14.28588867 18.22250366 C15.513149 20.76864402 16.72538213 23.32162129 17.9375 25.875 C18.79183721 27.6544368 19.64715128 29.43340492 20.50341797 31.21191406 C22.5866029 35.54429723 24.65848074 39.88195998 26.72607422 44.22180176 C28.18621485 47.28366744 29.65490025 50.34134076 31.125 53.3984375 C33.00109174 57.30032609 34.87293196 61.20420739 36.7421875 65.109375 C40.48753009 72.91987596 44.27553666 80.70962106 48.0625 88.5 C48.4227829 89.2411908 48.7830658 89.98238159 49.15426636 90.74603271 C50.6169537 93.75500587 52.07973093 96.76393531 53.54264832 99.77279663 C64.07445378 121.43564182 74.56781492 143.11701022 85.03320312 164.81201172 C87.93255199 170.82206121 90.83407565 176.83106109 93.73529053 182.84020996 C95.23765961 185.95203322 96.73991939 189.06390924 98.2421875 192.17578125 C98.73960449 193.20614502 99.23702148 194.23650879 99.74951172 195.2980957 C100.10029785 196.02472412 100.45108398 196.75135254 100.8125 197.5 C110.24640223 178.88870648 119.26892468 160.07544884 128 141.125 C133.49582005 129.20031512 139.2175067 117.39449521 144.98638916 105.59997559 C149.8891505 95.57149552 154.71177394 85.51762768 159.375 75.375 C164.95738735 63.23531077 170.76140415 51.2120033 176.62573242 39.20654297 C177.33910659 37.74580566 178.05240508 36.28503138 178.765625 34.82421875 C179.28579948 33.75886902 179.28579948 33.75886902 179.81648254 32.67199707 C181.98674788 28.21865932 184.12315207 23.75117303 186.234375 19.26953125 C186.7401709 18.19743408 187.2459668 17.12533691 187.76708984 16.02075195 C188.68435273 14.07003114 189.59651084 12.11689805 190.50244141 10.16088867 C190.90124512 9.31373291 191.30004883 8.46657715 191.7109375 7.59375 C192.21633057 6.50610352 192.21633057 6.50610352 192.73193359 5.39648438 C193.88620423 3.37064292 195.02341551 1.99176305 196.8125 0.5 C199.3125 0.0625 199.3125 0.0625 201.8125 0.5 C204.86263089 3.66548295 205.52005124 6.73608271 206.31056213 10.99002075 C206.43279445 11.64292151 206.55502677 12.29582226 206.6809631 12.96850789 C208.29894806 21.82796595 209.55858719 30.74730448 210.84350586 39.65966797 C211.13265953 41.64417706 211.42218546 43.62863193 211.71205139 45.61303711 C212.33131587 49.85714756 212.94822181 54.1015915 213.56330681 58.34630966 C214.53843716 65.07389401 215.520428 71.80046625 216.5035553 78.52688599 C219.29669229 97.64448798 222.08029027 116.76347393 224.8581543 135.88330078 C226.39568955 146.46561172 227.93861988 157.0471227 229.48716837 167.62782776 C230.46310269 174.29833056 231.43241647 180.96974968 232.39663112 187.64195609 C233.00064822 191.81056129 233.61094104 195.97823057 234.22290611 200.14567566 C234.50280975 202.06033642 234.78022378 203.97536329 235.0547905 205.89079666 C236.35216429 214.9323646 237.75977275 223.92240198 239.76002502 232.83865356 C239.97755288 233.84947032 239.97755288 233.84947032 240.19947523 234.88070762 C241.66101416 241.04802879 243.74876865 246.07126291 249.0625 249.75 C257.85815538 253.60223253 268.34852446 254.36981542 277.8125 255.5 C278.4375 257.375 278.4375 257.375 278.8125 259.5 C276.17278063 262.13971937 274.21182107 262.44526594 270.53663635 262.58901978 C269.70284958 262.57205048 268.86906281 262.55508118 268.01000977 262.53759766 C267.05703506 262.52072906 266.10406036 262.50386047 265.12220764 262.48648071 C264.09316818 262.4625827 263.06412872 262.43868469 262.00390625 262.4140625 C260.92737289 262.39282318 259.85083954 262.37158386 258.74168396 262.34970093 C256.45265471 262.30340245 254.16367744 262.2544713 251.87475586 262.203125 C248.44719931 262.1266117 245.01956144 262.05864492 241.59179688 261.9921875 C231.10950379 261.77980558 220.6283014 261.51227336 210.15234375 261.0859375 C208.90415611 261.04323227 208.90415611 261.04323227 207.63075256 260.99966431 C202.44314225 260.76490067 197.81333186 259.91022529 192.8125 258.5 C192.4825 256.85 192.1525 255.2 191.8125 253.5 C193.4625 252.84 195.1125 252.18 196.8125 251.5 C197.11082442 242.77395338 196.18620669 234.38592594 194.9765625 225.75708008 C194.77888856 224.30728616 194.58186526 222.8574034 194.38543701 221.40744019 C193.85483749 217.50440095 193.31523999 213.60265466 192.77391815 209.7010901 C192.20806742 205.61124134 191.65063896 201.5202448 191.09228516 197.42936707 C190.03570932 189.69760952 188.97165184 181.96690129 187.9048481 174.23654908 C186.68983663 165.42952234 185.48325306 156.62134739 184.27734756 147.81306994 C181.79838674 129.70742729 179.30893835 111.60324067 176.8125 93.5 C174.82365499 96.10723773 173.1531172 98.58503899 171.71875 101.53637695 C171.14109642 102.71716072 171.14109642 102.71716072 170.55177307 103.92179871 C170.14281296 104.76873795 169.73385284 105.61567719 169.3125 106.48828125 C168.88029648 107.37498001 168.44809296 108.26167877 168.00279236 109.17524719 C166.60183101 112.05231188 165.20703646 114.93231638 163.8125 117.8125 C162.84997478 119.79294406 161.88716495 121.77324981 160.92407227 123.75341797 C154.92406156 136.09961959 148.96229483 148.46365142 143.06933594 160.86132812 C140.68292599 165.87149104 138.2778391 170.87270143 135.875 175.875 C134.86588017 177.97655998 133.85676559 180.07812248 132.84765625 182.1796875 C132.09572998 183.74541504 132.09572998 183.74541504 131.32861328 185.34277344 C129.32166805 189.52213184 127.31541869 193.70182404 125.30932617 197.8815918 C124.31358565 199.95606474 123.31765548 202.03044667 122.3215332 204.10473633 C119.76763186 209.42338095 117.21700273 214.74355702 114.671875 220.06640625 C105.73035942 238.75735525 105.73035942 238.75735525 101.3125 247.6875 C101.01053711 248.30439697 100.70857422 248.92129395 100.39746094 249.55688477 C98.472883 253.41417724 96.38509336 257.03728934 93.8125 260.5 C91.0625 261.375 91.0625 261.375 88.8125 261.5 C83.5747059 255.91434481 80.29040623 249.36136421 76.75 242.625 C76.0853141 241.37233297 75.42035249 240.11981219 74.75512695 238.86743164 C70.04134558 229.96366987 65.4896113 220.98246637 61.0234375 211.9519043 C58.02565381 205.89405189 54.93425938 199.89916916 51.75 193.9375 C43.22475616 177.90176069 35.72487475 161.3531553 28.09741211 144.87792969 C23.6721769 135.3277398 19.20918922 125.79560933 14.722229 116.27426147 C13.95074329 114.63662561 13.1800285 112.99862633 12.41009521 111.36026001 C11.3328535 109.0685727 10.25278329 106.77824099 9.171875 104.48828125 C8.84645721 103.79488647 8.52103943 103.1014917 8.1857605 102.38708496 C6.83082714 99.22615167 6.83082714 99.22615167 4.8125 96.5 C2.60499149 113.13793847 0.4053321 129.77689352 -1.78526211 146.41706657 C-2.80281714 154.14523111 -3.82283437 161.87305501 -4.84887695 169.60009766 C-5.74429145 176.34344064 -6.6348534 183.08740467 -7.51985127 189.83212292 C-7.98760319 193.39567905 -8.45760389 196.95890247 -8.93343925 200.52138901 C-11.40192726 218.72578951 -11.40192726 218.72578951 -13.11352539 237.01220703 C-13.17190047 237.70512281 -13.23027555 238.3980386 -13.29041958 239.11195183 C-13.5406919 243.68260752 -12.5858789 246.62628376 -10.1875 250.5 C-3.77100883 254.835467 6.24915361 254.65298492 13.8125 255.5 C14.1425 257.15 14.4725 258.8 14.8125 260.5 C10.59894683 262.53118276 7.15162872 262.74804129 2.49951172 262.74291992 C1.4229985 262.74576744 1.4229985 262.74576744 0.32473755 262.74867249 C-2.03622528 262.75236297 -4.39687724 262.74170219 -6.7578125 262.73046875 C-8.40257735 262.72927602 -10.04734289 262.72882399 -11.69210815 262.7290802 C-15.13348678 262.72751841 -18.57476093 262.71925076 -22.01611328 262.70581055 C-26.42909101 262.68879445 -30.84195432 262.68499716 -35.25496101 262.68575573 C-38.64868259 262.68548399 -42.04237912 262.6800025 -45.43609238 262.67275429 C-47.06360561 262.66957104 -48.69112167 262.66760101 -50.31863785 262.66686058 C-52.59024151 262.6646949 -54.86172327 262.65594648 -57.13330078 262.64526367 C-58.42615997 262.64145187 -59.71901917 262.63764008 -61.05105591 262.63371277 C-64.1875 262.5 -64.1875 262.5 -67.1875 261.5 C-67.56968767 259.84385343 -67.90145102 258.17542976 -68.1875 256.5 C-66.02590001 254.33840001 -60.94850737 254.72434754 -57.91015625 254.42578125 C-52.76450721 253.82933077 -49.12760202 252.72597184 -45.6727438 248.76204777 C-38.85053766 238.37172922 -38.42549615 222.4784252 -36.65991211 210.45922852 C-36.33004011 208.26152916 -35.99932295 206.06395652 -35.66783142 203.86650085 C-34.95981835 199.16172172 -34.25748827 194.45614296 -33.55961418 189.74984932 C-32.4555221 182.30596619 -31.3371583 174.86426954 -30.21669006 167.4228363 C-28.64729676 156.99108354 -27.08297136 146.55858403 -25.52416992 136.12524414 C-25.42553796 135.46509963 -25.32690599 134.80495511 -25.22528518 134.12480622 C-24.424647 128.76575763 -23.62434826 123.40665837 -22.82412815 118.04754734 C-22.12304839 113.35239622 -21.42185427 108.6572622 -20.72045898 103.9621582 C-20.62164824 103.30070714 -20.52283749 102.63925609 -20.42103248 101.95776106 C-18.77217681 90.9216966 -17.11578519 79.88677298 -15.45420462 68.85261673 C-14.34098271 61.45631117 -13.23696135 54.05870868 -12.13997829 46.65997803 C-11.45636676 42.06227393 -10.76490334 37.46577587 -10.0712986 32.86956978 C-9.75152369 30.73958629 -9.43502157 28.60910847 -9.12204742 26.47811508 C-8.69416628 23.56784203 -8.25458606 20.65956585 -7.81211853 17.7514801 C-7.69129329 16.90984725 -7.57046805 16.0682144 -7.44598144 15.20107752 C-5.27350717 1.20537307 -5.27350717 1.20537307 0 0 Z " fill="#0867AC" transform="translate(795.1875,518.5)"/>
<path d="M0 0 C3.3625621 1.68128105 3.84880207 5.61249521 5.0625 9 C8.84635969 19.26572768 13.02176799 29.34638055 17.24908447 39.4354248 C47.18302512 110.94130808 47.18302512 110.94130808 47.4375 147.25 C47.44765137 148.26094727 47.45780273 149.27189453 47.46826172 150.31347656 C47.30575268 164.15192215 42.60673955 178.0259607 32.96484375 188.1953125 C16.13730471 203.65122311 -4.93526414 205.96749317 -26.81201172 205.1640625 C-63.79441576 203.26084796 -98.64139414 191.35792965 -132.02325439 175.91442871 C-134.24493699 174.88669386 -136.46787904 173.86171171 -138.69091797 172.83691406 C-152.94606802 166.26278482 -152.94606802 166.26278482 -159.34912109 163.28125 C-167.8312344 159.33754541 -176.3175922 155.48761152 -185 152 C-185 151.34 -185 150.68 -185 150 C-184.04335449 149.98018066 -183.08670898 149.96036133 -182.10107422 149.93994141 C-178.48138267 149.86267773 -174.8620317 149.77417046 -171.24267578 149.68261719 C-169.68935978 149.64481738 -168.13597069 149.60988886 -166.58251953 149.578125 C-144.45652955 149.14653967 -144.45652955 149.14653967 -124.0625 141.25 C-120.07395937 136.89886476 -118.97469715 133.13924073 -119.04296875 127.3671875 C-119.28474894 123.89816739 -119.59738431 120.45376348 -120 117 C-119.01 116.67 -118.02 116.34 -117 116 C-116.5875 115.443125 -116.175 114.88625 -115.75 114.3125 C-114.14633823 112.19337552 -112.64537693 110.75926677 -110.625 109.0625 C-107.58640305 106.50775606 -104.64887777 103.96995386 -102 101 C-101.7226499 97.81509993 -101.7226499 97.81509993 -104 95 C-101.62790033 94.23753939 -100.3995585 93.86265176 -98 94.6875 C-97.34 94.790625 -96.68 94.89375 -96 95 C-93.66666667 93.33333333 -93.66666667 93.33333333 -92 91 C-92 90.01 -92 89.02 -92 88 C-91.01 88 -90.02 88 -89 88 C-86.83023454 86.17739702 -85.59459332 84.39188999 -84 82 C-82 79 -82 79 -80 77 C-79.29289322 75.35008418 -78.62056011 73.68437744 -78 72 C-77.34 72 -76.68 72 -76 72 C-75.67 71.34 -75.34 70.68 -75 70 C-73.68 70 -72.36 70 -71 70 C-69.10338257 68.85353452 -69.10338257 68.85353452 -68 67 C-68.32843384 64.93618425 -68.32843384 64.93618425 -69 63 C-68.505 62.01 -68.505 62.01 -68 61 C-66.515 61.495 -66.515 61.495 -65 62 C-63.47023579 60.79571754 -61.94483933 59.58186948 -60.49609375 58.28125 C-58.79426117 56.82380591 -57.05992402 55.87150632 -55 55 C-55 54.34 -55 53.68 -55 53 C-55.66 52.67 -56.32 52.34 -57 52 C-56.67 51.01 -56.34 50.02 -56 49 C-55.34 49 -54.68 49 -54 49 C-53.67 48.34 -53.34 47.68 -53 47 C-51 45 -51 45 -48 44 C-47.01 43.01 -47.01 43.01 -46 42 C-44 40 -44 40 -42 39.0625 C-39.67868591 38.03213141 -39.67868591 38.03213141 -38 35 C-36.68 35 -35.36 35 -34 35 C-32.2418931 33.36536345 -32.2418931 33.36536345 -30.8125 31.1875 C-30.30332031 30.47980469 -29.79414062 29.77210938 -29.26953125 29.04296875 C-27.84859107 26.93265595 -27.84859107 26.93265595 -27 24 C-26.0206121 22.97980427 -25.02104551 21.97850195 -24 21 C-23.67 20.34 -23.34 19.68 -23 19 C-20.3255814 15.1627907 -20.3255814 15.1627907 -18 14 C-18.33 13.34 -18.66 12.68 -19 12 C-18.63637344 9.09098753 -18.31600401 6.63200802 -17 4 C-12.125 6.875 -12.125 6.875 -11 8 C-7.27385847 6.88145414 -7.27385847 6.88145414 -5 4 C-4.01 3.67 -3.02 3.34 -2 3 C-1.34 2.01 -0.68 1.02 0 0 Z M-17 12 C-16.67 12.99 -16.34 13.98 -16 15 C-16 14.01 -16 13.02 -16 12 C-16.33 12 -16.66 12 -17 12 Z " fill="#DE9F25" transform="translate(847,213)"/>
<path d="M0 0 C2.38170138 1.6182139 4.38555884 3.54987747 6.4375 5.5625 C7.23897461 6.31370117 7.23897461 6.31370117 8.05664062 7.08007812 C10.94853063 9.83310187 13.63822616 12.69832934 16.23524475 15.73057556 C19.85025871 19.88151535 23.65549941 23.79678177 27.55249023 27.68188477 C28.27217987 28.40332672 28.99186951 29.12476868 29.73336792 29.86807251 C32.08928494 32.22835463 34.44879826 34.58500229 36.80859375 36.94140625 C38.46108853 38.5945756 40.11343492 40.2478933 41.76564026 41.90135193 C45.21949765 45.35667906 48.67514543 48.81020281 52.13208008 52.26245117 C56.54792813 56.6726024 60.95927112 61.08722827 65.369277 65.50322056 C68.77765234 68.91522106 72.18842025 72.32482185 75.5999012 75.73371696 C77.22682006 77.35997197 78.85300534 78.98696122 80.47842216 80.61471748 C82.75589901 82.89475303 85.03659001 85.17152616 87.31811523 87.44750977 C87.9796611 88.11107986 88.64120697 88.77464996 89.32279968 89.45832825 C93.15821378 93.27662814 97.10215108 96.91087015 101.20914459 100.43598175 C103.99721004 102.87089929 106.61142733 105.46815774 109.22265625 108.08984375 C109.77183212 108.6380629 110.321008 109.18628204 110.88682556 109.75111389 C112.03490838 110.8985232 113.18175763 112.04716808 114.32739258 113.19702148 C116.058947 114.933936 117.79578359 116.66543889 119.53320312 118.39648438 C128.76611234 127.6242613 128.76611234 127.6242613 132.4765625 131.9765625 C137.1834156 137.49386712 142.39269096 142.54150642 147.52661133 147.65698242 C149.32947341 149.45442236 151.12684985 151.25722661 152.92382812 153.06054688 C154.06999147 154.20605047 155.21646442 155.35124439 156.36328125 156.49609375 C157.16793571 157.30378456 157.16793571 157.30378456 157.98884583 158.12779236 C160.73434408 160.90843562 160.73434408 160.90843562 164 163 C163.83955169 162.44585356 163.67910337 161.89170712 163.51379299 161.32076836 C162.95177049 158.78215054 162.83305207 156.46729802 162.77931213 153.8677063 C162.75558533 152.83067062 162.73185852 151.79363495 162.70741272 150.72517395 C162.68609787 149.59270737 162.66478302 148.46024078 162.64282227 147.29345703 C162.61662811 146.0961647 162.59043396 144.89887238 162.56344604 143.66529846 C162.49219377 140.38169587 162.42485046 137.09803764 162.35868192 133.81432962 C162.28778366 130.36545488 162.21040416 126.91672739 162.13328552 123.46798706 C161.87194066 111.72625363 161.62156878 99.98429588 161.37768555 88.2421875 C161.24289549 81.75587266 161.10192141 75.26971966 160.95460552 68.78367698 C160.87711807 65.35834684 160.80284427 61.9330153 160.73648262 58.5074501 C160.66089825 54.67158514 160.57480893 50.83608025 160.48657227 47.00048828 C160.46728165 45.88826401 160.44799103 44.77603973 160.42811584 43.63011169 C160.48417505 28.53810192 160.48417505 28.53810192 155 15 C148.83834049 11.74478365 142.97560928 11.58531311 136.07421875 11.40625 C133 11 133 11 131.08203125 9.46875 C130.72496094 8.9840625 130.36789062 8.499375 130 8 C130.33 7.01 130.66 6.02 131 5 C133.97265801 3.513671 137.00415853 3.85265486 140.26367188 3.85473633 C141.01177628 3.85137772 141.75988068 3.8480191 142.53065491 3.84455872 C145.0100367 3.83503917 147.48935106 3.83310523 149.96875 3.83203125 C151.6874596 3.82881981 153.40616892 3.82545583 155.12487793 3.82194519 C158.72958002 3.81595172 162.33425812 3.81410556 165.93896484 3.81469727 C170.56627355 3.814799 175.19342921 3.80113589 179.8207016 3.78392506 C183.37051099 3.77282809 186.92028307 3.77077733 190.47010803 3.77130699 C192.17660551 3.77012381 193.88310387 3.76568322 195.58958435 3.75797462 C197.9719427 3.74821925 200.35396481 3.75103473 202.73632812 3.75708008 C203.44600235 3.75146057 204.15567657 3.74584106 204.88685608 3.74005127 C209.7716829 3.7716829 209.7716829 3.7716829 212 6 C211.75 8.0625 211.75 8.0625 211 10 C207.40885229 11.79557385 203.21516477 11.80881628 199.26171875 12.3046875 C195.89609753 13.02214927 193.7681912 13.98267441 191 16 C187.92213134 21.69405702 187.84571028 28.21261326 187.73461914 34.55541992 C187.71813324 35.29659844 187.70164734 36.03777697 187.68466187 36.80141544 C187.63065423 39.27769724 187.58289282 41.75405871 187.53515625 44.23046875 C187.49763245 46.01512406 187.45973503 47.79977155 187.42149353 49.58441162 C187.33988667 53.43203007 187.26107401 57.27969249 187.18432617 61.12741089 C187.06241831 67.23097057 186.93285471 73.33435494 186.80273438 79.43774414 C186.37540027 99.61746817 185.97982754 119.79762987 185.62071228 139.97868347 C185.47833972 147.97872759 185.33032926 155.97866528 185.18136311 163.97858906 C185.05898555 170.59034215 184.94562181 177.20217561 184.83869267 183.81419563 C184.7701195 187.9370502 184.69374789 192.05973389 184.61529732 196.18241119 C184.58045947 198.1008553 184.54894887 200.01936309 184.52097893 201.93791962 C184.48235428 204.56033809 184.43205764 207.18228498 184.37890625 209.80444336 C184.37053269 210.56785632 184.36215914 211.33126928 184.35353184 212.11781597 C184.25801152 216.16430136 183.79157289 219.35236948 182 223 C177.81453021 224.02501301 175.66369864 224.31567117 171.71484375 222.4375 C167.53280878 219.88529807 164.12696621 216.64985132 160.625 213.25 C159.21890165 211.90739324 157.81264622 210.56495098 156.40625 209.22265625 C155.684375 208.52930176 154.9625 207.83594727 154.21875 207.12158203 C151.27214944 204.30402494 148.29362164 201.52140073 145.31567383 198.73706055 C139.22002586 193.0340666 133.18597977 187.29935534 127.37109375 181.30859375 C125.37198729 179.36218202 123.33480693 177.54255319 121.22265625 175.72265625 C116.22422194 171.38517193 111.63134646 166.68273995 107 161.9609375 C103.83165807 158.75546656 100.64628822 155.64709804 97.21875 152.71875 C91.14502814 147.48728254 85.61669649 141.67263349 79.99072266 135.97021484 C74.73266229 130.64721906 69.45741252 125.43651159 63.76611328 120.5703125 C60.86276606 117.98884591 58.2898638 115.12943971 55.6875 112.25 C49.21427311 105.19166347 42.4853123 98.41652199 35.66088867 91.69824219 C31.45414968 87.53723345 27.4392896 83.29796636 23.58325195 78.81030273 C21.34855151 76.25512867 18.97940971 73.88380136 16.5625 71.5 C15.04166667 70 13.52083333 68.5 12 67 C11.91772208 82.42097468 12.12254992 97.81284336 12.5859375 113.2265625 C12.64847182 115.35972914 12.71093984 117.49289772 12.77334595 119.62606812 C12.90367463 124.04782903 13.03689735 128.46949198 13.171875 132.89111328 C13.34329844 138.52424099 13.50404244 144.15762063 13.66228294 149.79113197 C13.78722603 154.177042 13.91947248 158.56271037 14.05369949 162.94834518 C14.11609999 165.02525549 14.17591614 167.1022453 14.23295212 169.17930984 C14.09718673 189.23958662 14.09718673 189.23958662 20 208 C23.09432201 210.86485543 25.68007258 211.54147366 29.8125 212.125 C30.86824219 212.28484375 31.92398438 212.4446875 33.01171875 212.609375 C34.76058407 212.83798485 36.51280939 213.04589688 38.26953125 213.203125 C40.125 213.375 40.125 213.375 43 214 C44.4375 216.0625 44.4375 216.0625 45 218 C40.87432521 220.9976102 37.47356757 221.42748559 32.51928711 221.37231445 C31.78371078 221.37596512 31.04813446 221.37961578 30.29026794 221.38337708 C27.86905529 221.39145536 25.44851758 221.37789691 23.02734375 221.36328125 C21.34013367 221.36276237 19.65292298 221.36328115 17.9657135 221.36479187 C14.4343256 221.36470227 10.90316658 221.35429733 7.37182617 221.33618164 C2.84677771 221.31347749 -1.677937 221.31295485 -6.20302677 221.31969929 C-9.68516503 221.32304132 -13.16722728 221.31640505 -16.64935112 221.30657005 C-18.31790202 221.30272311 -19.98646137 221.30156774 -21.65501595 221.3031559 C-23.9864017 221.30352697 -26.31736013 221.29089537 -28.64868164 221.2746582 C-29.33710144 221.27713562 -30.02552124 221.27961304 -30.73480225 221.28216553 C-34.32432766 221.24228915 -36.94269964 220.95049349 -40 219 C-39.505 217.02 -39.505 217.02 -39 215 C-33.34789308 213.15977914 -27.79816374 212.40352022 -21.890625 211.7578125 C-19.00441652 211.22530367 -19.00441652 211.22530367 -17.234375 209.4921875 C-13.28996657 201.5284768 -13.601109 192.448563 -13.40625 183.77026367 C-13.36943972 182.39240822 -13.33203413 181.01456857 -13.29406738 179.6367445 C-13.1817454 175.42477762 -13.08814257 171.2125347 -13 167 C-12.97373535 165.75618687 -12.9474707 164.51237373 -12.92041016 163.23086929 C-12.77437656 155.98357679 -12.6578752 148.73604688 -12.55444336 141.48803139 C-12.49781581 137.52283895 -12.43780447 133.55770428 -12.37695312 129.59257507 C-12.25900755 121.87387218 -12.14478128 114.15511687 -12.03125 106.43634796 C-11.71030392 84.62384639 -11.38377353 62.81150791 -11 41 C-10.98173157 39.95493034 -10.96346313 38.90986069 -10.94464111 37.83312225 C-10.84869839 32.43988589 -10.74251453 27.04709329 -10.61523438 21.65450096 C-10.58067086 20.14765389 -10.54914802 18.64073331 -10.52099609 17.13375282 C-10.48276505 15.13479008 -10.43125931 13.13609392 -10.37890625 11.13745117 C-10.3538501 10.05840012 -10.32879395 8.97934906 -10.30297852 7.86759949 C-9.98758013 4.88244973 -9.35177676 2.67443009 -8 0 C-4.96073021 -1.5196349 -3.24999148 -0.90256021 0 0 Z " fill="#0867AC" transform="translate(477,560)"/>
<path d="M0 0 C0.84120392 -0.00419449 1.68240784 -0.00838898 2.54910278 -0.01271057 C3.92846512 -0.00428131 3.92846512 -0.00428131 5.33569336 0.00431824 C6.30666962 0.00241989 7.27764587 0.00052155 8.27804565 -0.00143433 C11.49395776 -0.00514496 14.709645 0.00556645 17.92553711 0.01676941 C20.15608697 0.01796118 22.38663734 0.01841438 24.6171875 0.01815796 C29.29454688 0.01972334 33.97182978 0.0280171 38.64916992 0.04142761 C44.65177979 0.05841747 50.65430555 0.06224197 56.65693665 0.06148243 C61.26363939 0.06175406 65.87032366 0.06723419 70.47702026 0.07448387 C72.69066223 0.0776713 74.9043063 0.07963812 77.11795044 0.08037758 C80.20879702 0.08254034 83.29955355 0.0912833 86.39038086 0.10197449 C87.30995575 0.1015213 88.22953064 0.10106812 89.17697144 0.1006012 C90.01817535 0.10486618 90.85937927 0.10913116 91.72607422 0.11352539 C92.82223305 0.11603916 92.82223305 0.11603916 93.9405365 0.11860371 C95.86303711 0.24723816 95.86303711 0.24723816 98.86303711 1.24723816 C99.67553711 3.18473816 99.67553711 3.18473816 99.86303711 5.24723816 C97.08641371 8.02386156 94.85042209 7.83195873 90.98803711 8.30973816 C85.37080992 8.99669239 85.37080992 8.99669239 79.86303711 10.24723816 C76.92740243 27.33124584 87.90599452 46.4442178 93.91100311 62.17900085 C95.20968567 65.58606458 96.50099734 68.99592082 97.79321289 72.40544128 C100.34838522 79.14362724 102.91155125 85.87874489 105.47796631 92.61265564 C106.72853718 95.89429512 107.97801517 99.17634701 109.22680664 102.45866394 C112.16628181 110.18451721 115.10870574 117.90924167 118.05441284 125.63272095 C122.38890472 136.9980462 126.72083497 148.36433527 131.0335083 159.73796082 C131.78416998 161.715975 132.53604659 163.69352861 133.28924561 165.670578 C134.33405821 168.4136461 135.37443822 171.15835784 136.41381836 173.90348816 C136.71932114 174.70266663 137.02482391 175.50184509 137.33958435 176.32524109 C139.44125594 181.89554002 141.21669631 187.5264375 142.86303711 193.24723816 C143.52303711 193.24723816 144.18303711 193.24723816 144.86303711 193.24723816 C144.95050201 192.4578334 145.03796692 191.66842865 145.12808228 190.85510254 C146.08575179 186.15394055 147.81121745 181.9527809 149.62231445 177.52140808 C150.01134445 176.55560822 150.40037445 175.58980835 150.80119324 174.59474182 C152.09489141 171.38678615 153.39705761 168.18233481 154.69897461 164.97770691 C155.61672577 162.70495472 156.53383793 160.4319444 157.4503479 158.15869141 C159.88089538 152.13379576 162.31813978 146.1116344 164.75738525 140.09025574 C169.05806343 129.47249668 173.35050238 118.85141028 177.63647461 108.22770691 C178.10479454 107.06696529 178.57311447 105.90622368 179.05562592 104.71030807 C185.98965484 87.51127468 192.81568049 70.27264257 199.52709961 52.98551941 C199.92620922 51.95975485 200.32531883 50.93399029 200.73652267 49.87714195 C209.38379308 31.56374056 209.38379308 31.56374056 211.86303711 12.24723816 C208.37074461 8.46085787 203.95498972 8.49736074 199.11303711 8.05973816 C198.32026367 7.97788269 197.52749023 7.89602722 196.71069336 7.81169128 C194.76260377 7.61218813 192.8129384 7.42817878 190.86303711 7.24723816 C190.53303711 5.59723816 190.20303711 3.94723816 189.86303711 2.24723816 C193.52676721 -0.09788194 197.03841697 -0.02987258 201.24609375 0.00431824 C202.35164864 0.00147072 202.35164864 0.00147072 203.47953796 -0.00143433 C205.91086533 -0.00513296 208.34189263 0.0055485 210.77319336 0.01676941 C212.46422796 0.01796178 214.15526322 0.01841425 215.84629822 0.01815796 C219.38780878 0.01972122 222.92921804 0.02799936 226.47070312 0.04142761 C231.01262414 0.05843016 235.55443398 0.06224147 240.09638309 0.06148243 C243.58704186 0.06175419 247.07767628 0.06723615 250.56832695 0.07448387 C252.24328871 0.07766799 253.91825323 0.07963735 255.59321785 0.08037758 C257.93198485 0.08254312 260.27063341 0.09129165 262.609375 0.10197449 C263.30296112 0.1015213 263.99654724 0.10106812 264.71115112 0.1006012 C267.71128079 0.12066254 269.99087854 0.28985197 272.86303711 1.24723816 C273.67553711 3.18473816 273.67553711 3.18473816 273.86303711 5.24723816 C271.11516733 7.99510794 269.07035311 7.7201322 265.23803711 8.12223816 C257.22561524 9.21074899 251.831982 10.61690128 246.42553711 16.80973816 C237.78652631 28.87322171 232.74531686 43.7708472 226.9934082 57.33415222 C222.42721197 68.06792398 217.62780528 78.69128228 212.80053711 89.30973816 C199.43041637 118.73534235 186.38794054 148.30352303 173.57290649 177.97489929 C151.75444323 228.49020223 151.75444323 228.49020223 144.36303711 244.80973816 C143.94908691 245.7351239 143.53513672 246.66050964 143.10864258 247.61393738 C141.12919203 251.93113665 139.21949052 255.80118743 135.86303711 259.24723816 C132.92553711 259.93473816 132.92553711 259.93473816 129.86303711 259.24723816 C125.66884421 254.93749817 123.42390346 250.60638698 121.21850586 245.06364441 C120.89208603 244.26895752 120.5656662 243.47427063 120.22935486 242.65550232 C119.1595631 240.0442768 118.10512524 237.42713647 117.05053711 234.80973816 C116.29555421 232.95929753 115.53951436 231.10928783 114.7824707 229.25968933 C113.22440469 225.4485691 111.67226541 221.63512048 110.12524414 217.81950378 C108.04949443 212.7015189 105.95832558 207.59002076 103.85913086 202.48161316 C103.53897003 201.70240509 103.2188092 200.92319702 102.88894653 200.12037659 C102.24493586 198.55308822 101.60088283 196.98581726 100.95678711 195.41856384 C99.97639458 193.03138957 98.99757094 190.64357809 98.01928711 188.25553894 C90.48201268 169.85704446 82.8822733 151.4843805 75.28637695 133.11003113 C72.49439497 126.35592403 69.70407069 119.60113261 66.91455078 112.8460083 C64.94852454 108.08513936 62.98169989 103.32460411 61.01293945 98.56486511 C57.33363987 89.66729512 53.66244051 80.76663794 50.01919556 71.85423279 C48.3174241 67.69261525 46.61114406 63.53285285 44.90454102 59.37321472 C44.10037818 57.40961328 43.29837026 55.44512761 42.4987793 53.47966003 C38.74551343 44.25515179 34.93785778 35.09066327 30.51928711 26.16130066 C30.19938309 25.51057587 29.87947906 24.85985107 29.54988098 24.18940735 C25.46508238 16.14241959 20.48500213 12.87906745 12.06225586 10.05973816 C6.07833981 8.54001345 -0.00136421 7.87653033 -6.13696289 7.24723816 C-6.46696289 5.59723816 -6.79696289 3.94723816 -7.13696289 2.24723816 C-4.06495267 0.19923134 -3.45912123 -0.00257866 0 0 Z " fill="#0867AC" transform="translate(7.136962890625,525.7527618408203)"/>
<path d="M0 0 C1.30203369 0.20133545 2.60406738 0.4026709 3.94555664 0.61010742 C5.14301514 0.81095947 6.34047363 1.01181152 7.57421875 1.21875 C8.63600342 1.39341797 9.69778809 1.56808594 10.79174805 1.74804688 C13.3125 2.5 13.3125 2.5 15.3125 5.5 C15.32421875 7.72265625 15.32421875 7.72265625 15 10.5625 C14.22580085 18.65060407 13.96868839 26.73853036 13.70581055 34.85766602 C13.5946024 38.07301105 13.46145544 41.28618845 13.3125 44.5 C13.23902344 46.15298096 13.23902344 46.15298096 13.1640625 47.83935547 C13.09960938 48.9017041 13.03515625 49.96405273 12.96875 51.05859375 C12.91525391 52.00919678 12.86175781 52.9597998 12.80664062 53.93920898 C12.24745588 56.83707895 11.24219515 58.30455198 9.3125 60.5 C7.375 60.125 7.375 60.125 5.3125 59.5 C3.93907471 56.75314943 3.93868188 54.18086865 3.625 51.125 C2.30366467 41.65219158 -1.20947412 32.61291801 -8.46875 26.0859375 C-30.22010711 10.53831252 -60.83186501 9.07493183 -86.4453125 13.21875 C-104.27209712 16.50636943 -118.66963123 24.71610658 -129.5625 39.375 C-145.34068673 63.75249045 -148.64033297 96.96735781 -142.7890625 125.125 C-137.02689739 149.40762314 -123.67171606 171.27111644 -102.23046875 184.7265625 C-78.37174066 199.06819906 -50.27640841 203.25314124 -23.125 196.8125 C-12.52403256 194.02635654 -5.06082679 188.39755469 1.3125 179.5 C3.26932948 175.93196287 4.84450615 172.29231744 6.3125 168.5 C6.6321875 167.68273437 6.951875 166.86546875 7.28125 166.0234375 C7.98068251 164.19066529 8.65050278 162.34662381 9.3125 160.5 C10.9625 160.5 12.6125 160.5 14.3125 160.5 C17.76713586 167.40927173 14.83424253 178.16406614 13.5625 185.4375 C13.37913086 186.48711914 13.19576172 187.53673828 13.00683594 188.61816406 C9.60961332 207.37572774 9.60961332 207.37572774 5.703125 210.98828125 C3.59661264 212.18516327 1.64628665 212.85023074 -0.6875 213.5 C-1.54214844 213.76941406 -2.39679688 214.03882813 -3.27734375 214.31640625 C-18.75737616 218.71197101 -34.91098996 218.87637984 -50.875 218.8125 C-51.82149414 218.81067719 -52.76798828 218.80885437 -53.74316406 218.80697632 C-67.56248307 218.76217095 -81.1357994 218.47441274 -94.6875 215.5 C-95.50460449 215.32307617 -96.32170898 215.14615234 -97.16357422 214.96386719 C-118.2869029 210.22431776 -138.29264686 201.88497623 -154.6875 187.5 C-155.45449219 186.86449219 -156.22148438 186.22898437 -157.01171875 185.57421875 C-176.79670313 168.81240686 -188.51874645 143.15157948 -190.6875 117.5 C-192.10315289 85.91204688 -186.21350021 56.66382803 -164.53125 32.53125 C-122.13299429 -13.2172766 -56.56177064 -8.96836663 0 0 Z " fill="#0867AC" transform="translate(1504.6875,565.5)"/>
<path d="M0 0 C-0.21328836 2.82326439 -0.43065558 5.64612883 -0.65234375 8.46875 C-0.93168517 12.05099101 -1.18747668 15.63462314 -1.44140625 19.21875 C-1.60655157 21.45834951 -1.77191816 23.69793272 -1.9375 25.9375 C-2.01210449 27.02732178 -2.08670898 28.11714355 -2.16357422 29.23999023 C-2.55654832 34.44468705 -2.97316267 39.12371772 -5 44 C-7.475 44.495 -7.475 44.495 -10 45 C-11.6944 41.61120001 -11.79515455 37.77182352 -12.3046875 34.04296875 C-13.06613162 30.71058127 -13.88986807 28.69018985 -16 26 C-28.19685789 18.91514949 -45.27048491 20.60098959 -58.9375 20.375 C-65.558125 20.25125 -72.17875 20.1275 -79 20 C-78.67 44.42 -78.34 68.84 -78 94 C-56.68108978 94.06117171 -56.68108978 94.06117171 -35.375 93.6875 C-34.1890625 93.66494141 -33.003125 93.64238281 -31.78125 93.61914062 C-22.71894237 93.34162007 -15.46374815 92.70314623 -9 86 C-6.8125 86.0625 -6.8125 86.0625 -5 87 C-3.88055257 90.35834228 -4.09496652 92.14991833 -4.5234375 95.63671875 C-4.65693604 96.76464844 -4.79043457 97.89257812 -4.92797852 99.0546875 C-5.07549561 100.25351562 -5.2230127 101.45234375 -5.375 102.6875 C-6.46265434 111.85027429 -7.36629841 120.9350094 -7.69140625 130.15625 C-8 133 -8 133 -10 136 C-11.65 135.67 -13.3 135.34 -15 135 C-15.14695312 133.57107422 -15.14695312 133.57107422 -15.296875 132.11328125 C-15.52117187 130.23189453 -15.52117187 130.23189453 -15.75 128.3125 C-15.95882813 126.45044922 -15.95882813 126.45044922 -16.171875 124.55078125 C-17.12849809 120.44903415 -17.82876841 118.77725957 -21 116 C-27.99289535 113.08143808 -34.98262116 112.48169239 -42.4765625 112.26953125 C-43.52782318 112.229384 -44.57908386 112.18923676 -45.66220093 112.14787292 C-48.98282621 112.02384354 -52.30373572 111.9178719 -55.625 111.8125 C-57.89197047 111.73101607 -60.15889861 111.64834512 -62.42578125 111.56445312 C-67.95010588 111.36258267 -73.47477769 111.17548852 -79 111 C-78.93864542 120.51043425 -78.86143658 130.02057193 -78.76428509 139.53070831 C-78.71965978 143.94721126 -78.68038663 148.36362364 -78.65356445 152.78027344 C-78.62745292 157.04687602 -78.5869957 161.31312858 -78.53681374 165.57951355 C-78.5201979 167.20285165 -78.50865084 168.82625021 -78.50238609 170.44966125 C-78.85254545 183.82565702 -78.85254545 183.82565702 -72.875 195.3125 C-56.97674032 204.6440872 -33.65113459 202.38442287 -16.27734375 199.046875 C-9.8822878 197.00411577 -6.22213971 193.85973196 -3 188 C-1.68821341 184.36692205 -1.68821341 184.36692205 -0.75 180.625 C-0.41484375 179.37976563 -0.0796875 178.13453125 0.265625 176.8515625 C0.62914062 175.44003906 0.62914062 175.44003906 1 174 C2.65 173.67 4.3 173.34 6 173 C9.64237942 180.28475883 6.81899811 192.72203018 5.6875 200.5 C5.56987305 201.3357959 5.45224609 202.1715918 5.33105469 203.03271484 C4.53480883 208.11260052 3.38669052 212.42698309 1 217 C-2.41146136 219.27430758 -3.60556991 219.25099782 -7.61082458 219.25396729 C-9.36269073 219.26242676 -9.36269073 219.26242676 -11.14994812 219.27105713 C-12.43263077 219.26700867 -13.71531342 219.26296021 -15.03686523 219.25878906 C-16.40026029 219.2614989 -17.76365387 219.26505979 -19.12704468 219.26940918 C-22.83159934 219.27853724 -26.53604276 219.27498701 -30.24059939 219.26865101 C-34.11581141 219.26359214 -37.99101381 219.26828224 -41.8662262 219.27142334 C-48.37543449 219.27506375 -54.88459742 219.27026238 -61.39379883 219.26074219 C-68.91974413 219.24986205 -76.44558104 219.25337969 -83.9715237 219.264395 C-90.43105066 219.2734712 -96.89054498 219.27475139 -103.35007626 219.26951766 C-107.20891634 219.2663992 -111.06770547 219.26598512 -114.92654228 219.27259064 C-118.55529604 219.27836815 -122.1839101 219.27435983 -125.81264877 219.26280212 C-127.77993833 219.25889589 -129.74723971 219.26483808 -131.71452332 219.27105713 C-132.88525391 219.26541748 -134.0559845 219.25977783 -135.26219177 219.25396729 C-136.27964194 219.25321323 -137.29709211 219.25245918 -138.34537411 219.25168228 C-141.04608097 218.99563111 -142.69177809 218.38394153 -145 217 C-144.67 215.35 -144.34 213.7 -144 212 C-142.96359375 211.86722656 -141.9271875 211.73445312 -140.859375 211.59765625 C-139.48956735 211.41939361 -138.11977656 211.24100138 -136.75 211.0625 C-136.06808594 210.97548828 -135.38617187 210.88847656 -134.68359375 210.79882812 C-131.39963389 210.3684062 -128.18809706 209.91205869 -125 209 C-124.50978951 207.37829738 -124.03357878 205.75236305 -123.5625 204.125 C-123.29566406 203.22007812 -123.02882813 202.31515625 -122.75390625 201.3828125 C-120.57543544 191.6079124 -120.84549171 181.6074236 -120.83886719 171.64575195 C-120.83423044 170.01033417 -120.82920465 168.37491745 -120.82382202 166.73950195 C-120.81078796 162.32447604 -120.80427207 157.90946526 -120.79981136 153.49442315 C-120.7968691 150.73274743 -120.79276243 147.97107575 -120.78830719 145.20940208 C-120.77466279 136.55805747 -120.76497835 127.9067222 -120.7611053 119.25536758 C-120.75661659 109.286199 -120.73901827 99.31716698 -120.7101047 89.34803993 C-120.68848688 81.62549698 -120.67840115 73.9029925 -120.67706418 66.18041962 C-120.67601724 61.57428508 -120.67013172 56.96827946 -120.65224457 52.3621769 C-120.63575969 48.03400305 -120.63361034 43.70605509 -120.64238358 39.37786102 C-120.64315343 37.79241772 -120.63881802 36.20696223 -120.62892532 34.62154961 C-120.61618525 32.45225087 -120.62209273 30.28375009 -120.63250732 28.11445618 C-120.63030748 26.29634414 -120.63030748 26.29634414 -120.6280632 24.44150257 C-121.07271393 20.32718357 -122.12713578 17.67981683 -124 14 C-129.75036553 9.67057422 -137.28122114 9.51158432 -144.21484375 9.37109375 C-147 9 -147 9 -148.87890625 7.47265625 C-149.24886719 6.98667969 -149.61882812 6.50070312 -150 6 C-149.67 5.01 -149.34 4.02 -149 3 C-146.46852809 1.73426405 -144.7391268 1.88260625 -141.90493774 1.89320374 C-140.82569031 1.89471939 -139.74644287 1.89623505 -138.63449097 1.89779663 C-137.44493805 1.904534 -136.25538513 1.91127136 -135.02978516 1.91821289 C-133.78080444 1.92127945 -132.53182373 1.92434601 -131.24499512 1.92750549 C-128.52325055 1.93467681 -125.80157552 1.94363287 -123.07985306 1.95540047 C-118.76657068 1.97369397 -114.45329626 1.98329428 -110.13998413 1.99131775 C-97.87242131 2.01546249 -85.60490655 2.05113459 -73.33740234 2.09594727 C-66.56560973 2.12060731 -59.7938365 2.13790406 -53.02200544 2.14750665 C-48.74514271 2.15400594 -44.46844027 2.16947508 -40.19163251 2.19182408 C-36.88247996 2.20645255 -33.5733427 2.20774773 -30.26416016 2.21118164 C-29.09484955 2.21994324 -27.92553894 2.22870483 -26.72079468 2.23773193 C-20.18908441 2.23003995 -14.06062179 1.68888528 -7.64696312 0.43007565 C-5.04635249 0.0075313 -2.6292473 -0.07516821 0 0 Z " fill="#0867AC" transform="translate(1256,562)"/>
<path d="M0 0 C1.25142036 -0.00503792 1.25142036 -0.00503792 2.52812195 -0.01017761 C5.29488602 -0.01970176 8.06158968 -0.02163143 10.82836914 -0.02270508 C12.74646531 -0.02591653 14.66456122 -0.02928051 16.58265686 -0.03279114 C20.60686817 -0.03878599 24.63105798 -0.04063066 28.65527344 -0.04003906 C33.81831653 -0.03993739 38.98122224 -0.05359289 44.14423275 -0.07081127 C48.10670101 -0.08191546 52.06913589 -0.08395876 56.03161812 -0.08342934 C57.93545569 -0.08461172 59.83929407 -0.08904787 61.74311638 -0.0967617 C64.40306164 -0.10653018 67.06270642 -0.10369609 69.72265625 -0.09765625 C70.51289185 -0.10327576 71.30312744 -0.10889526 72.11730957 -0.11468506 C75.92610786 -0.09264472 77.67811707 -0.02000854 80.92602539 2.14526367 C80.55102539 4.08276367 80.55102539 4.08276367 79.92602539 6.14526367 C76.10188071 8.05733601 71.51607888 8.02499607 67.30883789 8.54760742 C63.27127897 9.13205861 63.27127897 9.13205861 59.92602539 11.14526367 C57.01092466 17.49667804 56.40311203 23.03623106 56.24682617 29.97167969 C56.21373919 31.01642991 56.1806522 32.06118013 56.14656258 33.13758945 C55.79429917 45.39682176 55.78128438 57.65936138 55.79321289 69.92260742 C55.79253601 72.43241892 55.79156283 74.94223035 55.79031372 77.45204163 C55.78885231 82.67832064 55.79093891 87.90458239 55.7956543 93.13085938 C55.80132461 99.72624269 55.79797407 106.32158548 55.79223251 112.91696739 C55.74143543 146.34873672 55.74143543 146.34873672 56.30883789 179.77416992 C56.33920135 181.04630844 56.36956482 182.31844696 56.40084839 183.62913513 C56.61146897 194.99178373 56.61146897 194.99178373 61.05883789 205.12963867 C64.57565999 207.60195502 67.62530283 208.09867029 71.80102539 208.39526367 C73.17346743 208.52498409 74.54586379 208.65518876 75.91821289 208.78588867 C76.58175781 208.84196289 77.24530273 208.89803711 77.92895508 208.95581055 C80.94622959 209.24204588 83.92974682 209.69151914 86.92602539 210.14526367 C87.42102539 212.62026367 87.42102539 212.62026367 87.92602539 215.14526367 C84.00990778 217.78554725 79.80909169 217.42642015 75.27368164 217.40405273 C74.40170135 217.40755737 73.52972107 217.41106201 72.63131714 217.41467285 C69.75030546 217.42347196 66.86953955 217.41764741 63.98852539 217.41088867 C61.98600212 217.41223584 59.98347918 217.41417681 57.98095703 217.41668701 C53.7845549 217.41963581 49.58823793 217.41534845 45.3918457 217.40600586 C40.01147178 217.3946115 34.63129739 217.40117227 29.25093079 217.41315079 C25.11599218 217.42037595 20.98110092 217.41807843 16.84616089 217.4128952 C14.8622129 217.41156053 12.87826061 217.41320006 10.89431763 217.41785431 C8.12221887 217.42293026 5.35044378 217.41519418 2.57836914 217.40405273 C1.75746796 217.4081012 0.93656677 217.41214966 0.09078979 217.4163208 C-3.7617602 217.387619 -6.81323963 217.34368207 -10.07397461 215.14526367 C-9.74397461 213.49526367 -9.41397461 211.84526367 -9.07397461 210.14526367 C-7.28540039 209.87262695 -7.28540039 209.87262695 -5.46069336 209.59448242 C-3.89418379 209.34121441 -2.32778299 209.08727296 -0.76147461 208.83276367 C0.41705078 208.65583984 0.41705078 208.65583984 1.61938477 208.4753418 C2.37670898 208.3496582 3.1340332 208.22397461 3.91430664 208.09448242 C4.61080322 207.98450928 5.3072998 207.87453613 6.02490234 207.76123047 C8.37318862 207.0003821 9.38632633 206.05870652 10.92602539 204.14526367 C15.28833702 191.78538071 14.0764175 176.908377 14.07128906 163.9519043 C14.07429156 162.40589315 14.07769653 160.85988275 14.08146667 159.31387329 C14.09019015 155.16978359 14.09263951 151.0257146 14.09328246 146.88161659 C14.09399849 144.28573523 14.09614292 141.68985897 14.09877968 139.09397888 C14.10798732 130.02025015 14.11211946 120.94653599 14.11132812 111.87280273 C14.11072531 103.4383847 14.12132874 95.00403018 14.13707179 86.56962824 C14.1501574 79.29790018 14.15551175 72.02619292 14.15487272 64.75445318 C14.15461847 60.42395114 14.15743051 56.09350596 14.16805077 51.76301575 C14.17775156 47.69826114 14.17779742 43.63361769 14.17053413 39.5688591 C14.16949147 38.08220125 14.17183219 36.59553639 14.17789459 35.10889053 C14.66888495 22.79896655 14.66888495 22.79896655 10.11352539 11.77026367 C4.93806727 7.92563764 -0.18093085 7.79720171 -6.42944336 7.48901367 C-9.07397461 7.14526367 -9.07397461 7.14526367 -11.07397461 5.14526367 C-10.82397461 3.08276367 -10.82397461 3.08276367 -10.07397461 1.14526367 C-6.90206679 -0.44069024 -3.48325093 -0.00199248 0 0 Z " fill="#0867AC" transform="translate(304.073974609375,563.854736328125)"/>
<path d="M0 0 C-3.09777223 1.7006482 -6.0575367 2.61996076 -9.48828125 3.4453125 C-10.57560547 3.71327637 -11.66292969 3.98124023 -12.78320312 4.25732422 C-13.94787109 4.54365723 -15.11253906 4.82999023 -16.3125 5.125 C-46.99869181 12.91147751 -75.00160107 23.91654803 -99 45 C-99.62003906 45.53625 -100.24007812 46.0725 -100.87890625 46.625 C-106.0393016 51.41423003 -109.87276412 57.23032151 -113.86328125 62.98828125 C-116 66 -116 66 -118 68 C-118.66 68 -119.32 68 -120 68 C-120.495 69.98 -120.495 69.98 -121 72 C-121.66 72 -122.32 72 -123 72 C-123.495 73.485 -123.495 73.485 -124 75 C-124.66 75 -125.32 75 -126 75 C-126 75.66 -126 76.32 -126 77 C-126.66 77 -127.32 77 -128 77 C-128 77.66 -128 78.32 -128 79 C-128.66 79 -129.32 79 -130 79 C-130 79.66 -130 80.32 -130 81 C-130.66 81 -131.32 81 -132 81 C-132 81.66 -132 82.32 -132 83 C-132.66 83 -133.32 83 -134 83 C-134.495 84.98 -134.495 84.98 -135 87 C-135.66 87 -136.32 87 -137 87 C-137.33 87.66 -137.66 88.32 -138 89 C-138.66 89 -139.32 89 -140 89 C-140.33 89.66 -140.66 90.32 -141 91 C-141.66 91 -142.32 91 -143 91 C-143 91.66 -143 92.32 -143 93 C-143.66 93 -144.32 93 -145 93 C-145 93.66 -145 94.32 -145 95 C-145.66 95 -146.32 95 -147 95 C-147.4640625 96.175625 -147.4640625 96.175625 -147.9375 97.375 C-149 100 -149 100 -150 102 C-150.66 102 -151.32 102 -152 102 C-152 102.66 -152 103.32 -152 104 C-152.66 104 -153.32 104 -154 104 C-154.33 104.66 -154.66 105.32 -155 106 C-155.66 105.67 -156.32 105.34 -157 105 C-157 105.66 -157 106.32 -157 107 C-157.66 107 -158.32 107 -159 107 C-159 107.66 -159 108.32 -159 109 C-159.66 109 -160.32 109 -161 109 C-161 109.66 -161 110.32 -161 111 C-161.66 111 -162.32 111 -163 111 C-163 111.66 -163 112.32 -163 113 C-163.66 113 -164.32 113 -165 113 C-165.0825 113.5775 -165.165 114.155 -165.25 114.75 C-166.21797787 117.6539336 -167.68694284 119.03740604 -170 121 C-170.66 121 -171.32 121 -172 121 C-172 121.66 -172 122.32 -172 123 C-172.66 123 -173.32 123 -174 123 C-174 123.66 -174 124.32 -174 125 C-174.66 125 -175.32 125 -176 125 C-176 125.66 -176 126.32 -176 127 C-176.66 127 -177.32 127 -178 127 C-178 127.66 -178 128.32 -178 129 C-178.66 129 -179.32 129 -180 129 C-180 129.66 -180 130.32 -180 131 C-180.66 131 -181.32 131 -182 131 C-182.33 131.66 -182.66 132.32 -183 133 C-184.32 133 -185.64 133 -187 133 C-187 133.66 -187 134.32 -187 135 C-187.66 135 -188.32 135 -189 135 C-189 135.66 -189 136.32 -189 137 C-189.66 137 -190.32 137 -191 137 C-191 137.66 -191 138.32 -191 139 C-191.66 139 -192.32 139 -193 139 C-193 139.66 -193 140.32 -193 141 C-193.66 141 -194.32 141 -195 141 C-195.33 142.32 -195.66 143.64 -196 145 C-196.66 145 -197.32 145 -198 145 C-198 145.66 -198 146.32 -198 147 C-197.01 147.33 -196.02 147.66 -195 148 C-196.375 149.5 -196.375 149.5 -198 151 C-198.66 151 -199.32 151 -200 151 C-200 151.66 -200 152.32 -200 153 C-200.66 153 -201.32 153 -202 153 C-202 153.66 -202 154.32 -202 155 C-202.66 155 -203.32 155 -204 155 C-204 155.66 -204 156.32 -204 157 C-204.66 157 -205.32 157 -206 157 C-206 157.66 -206 158.32 -206 159 C-206.66 159 -207.32 159 -208 159 C-208 159.66 -208 160.32 -208 161 C-208.66 161 -209.32 161 -210 161 C-210 161.66 -210 162.32 -210 163 C-210.66 163 -211.32 163 -212 163 C-212 163.66 -212 164.32 -212 165 C-212.66 165 -213.32 165 -214 165 C-214 165.66 -214 166.32 -214 167 C-214.66 167 -215.32 167 -216 167 C-216 167.66 -216 168.32 -216 169 C-216.66 169 -217.32 169 -218 169 C-218 169.66 -218 170.32 -218 171 C-218.66 171 -219.32 171 -220 171 C-220.33 171.66 -220.66 172.32 -221 173 C-221.66 173 -222.32 173 -223 173 C-223.7115625 174.2065625 -223.7115625 174.2065625 -224.4375 175.4375 C-226 178 -226 178 -229 179 C-229.66 179 -230.32 179 -231 179 C-231.66 179.99 -232.32 180.98 -233 182 C-233.99 182 -234.98 182 -236 182 C-235.979375 181.030625 -235.95875 180.06125 -235.9375 179.0625 C-235.64381501 176.12534105 -235.64381501 176.12534105 -237 175 C-239.572243 141.11564505 -226.16205534 106.59051434 -204.6015625 80.91796875 C-195.62662733 70.85148741 -186.10911885 61.68546079 -175 54 C-174.34531738 53.54447754 -173.69063477 53.08895508 -173.01611328 52.61962891 C-129.14757344 22.54328476 -76.26690104 10.31791404 -24.5 2.0625 C-23.50297562 1.90077301 -23.50297562 1.90077301 -22.48580933 1.73577881 C-14.93984635 0.5233689 -7.64794219 -0.33053534 0 0 Z M-200 147 C-199.67 147.66 -199.34 148.32 -199 149 C-198.67 148.34 -198.34 147.68 -198 147 C-198.66 147 -199.32 147 -200 147 Z M-202 149 C-201.67 149.66 -201.34 150.32 -201 151 C-200.67 150.34 -200.34 149.68 -200 149 C-200.66 149 -201.32 149 -202 149 Z M-204 151 C-203.67 151.66 -203.34 152.32 -203 153 C-202.67 152.34 -202.34 151.68 -202 151 C-202.66 151 -203.32 151 -204 151 Z M-206 153 C-205.67 153.66 -205.34 154.32 -205 155 C-204.67 154.34 -204.34 153.68 -204 153 C-204.66 153 -205.32 153 -206 153 Z M-208 155 C-207.67 155.66 -207.34 156.32 -207 157 C-206.67 156.34 -206.34 155.68 -206 155 C-206.66 155 -207.32 155 -208 155 Z M-210 157 C-209.67 157.66 -209.34 158.32 -209 159 C-208.67 158.34 -208.34 157.68 -208 157 C-208.66 157 -209.32 157 -210 157 Z M-212 159 C-211.67 159.66 -211.34 160.32 -211 161 C-210.67 160.34 -210.34 159.68 -210 159 C-210.66 159 -211.32 159 -212 159 Z M-214 161 C-213.67 161.66 -213.34 162.32 -213 163 C-212.67 162.34 -212.34 161.68 -212 161 C-212.66 161 -213.32 161 -214 161 Z M-216 163 C-215.67 163.66 -215.34 164.32 -215 165 C-214.67 164.34 -214.34 163.68 -214 163 C-214.66 163 -215.32 163 -216 163 Z M-218 165 C-217.67 165.66 -217.34 166.32 -217 167 C-216.67 166.34 -216.34 165.68 -216 165 C-216.66 165 -217.32 165 -218 165 Z M-220 167 C-219.67 167.66 -219.34 168.32 -219 169 C-218.67 168.34 -218.34 167.68 -218 167 C-218.66 167 -219.32 167 -220 167 Z M-187 137 C-186.01 137.495 -186.01 137.495 -185 138 C-185.99 138.495 -185.99 138.495 -187 139 C-187 138.34 -187 137.68 -187 137 Z M-189 139 C-188.01 139.495 -188.01 139.495 -187 140 C-187.99 140.495 -187.99 140.495 -189 141 C-189 140.34 -189 139.68 -189 139 Z M-191 141 C-190.01 141.495 -190.01 141.495 -189 142 C-189.99 142.495 -189.99 142.495 -191 143 C-191 142.34 -191 141.68 -191 141 Z M-193 143 C-192.01 143.495 -192.01 143.495 -191 144 C-191.99 144.495 -191.99 144.495 -193 145 C-193 144.34 -193 143.68 -193 143 Z M-195 145 C-194.01 145.495 -194.01 145.495 -193 146 C-193.99 146.495 -193.99 146.495 -195 147 C-195 146.34 -195 145.68 -195 145 Z " fill="#C8892A" transform="translate(964,0)"/>
<path d="M0 0 C1.81640625 0.51171875 1.81640625 0.51171875 4 2 C5.18548888 4.63475662 6.09629449 7.06811065 6.9375 9.8125 C7.31600098 11.00008911 7.31600098 11.00008911 7.70214844 12.21166992 C10.64284697 21.68407683 12.91930673 31.30741985 15 41 C15.24878906 42.10214844 15.49757813 43.20429688 15.75390625 44.33984375 C17.16956888 51.71514907 17.23125952 59.13779009 17.3125 66.625 C17.33920776 68.19942871 17.33920776 68.19942871 17.36645508 69.80566406 C17.35208705 83.8774873 12.79146857 97.83112615 2.96484375 108.1953125 C-13.85548229 123.64459805 -34.92517322 125.9687561 -56.79443359 125.16845703 C-73.59046652 124.28580184 -89.77205117 121.31721457 -106 117 C-106 116.34 -106 115.68 -106 115 C-106.99 114.67 -107.98 114.34 -109 114 C-108.06139523 110.45415975 -106.73457072 108.60229705 -103.9375 106.375 C-99.62869578 102.93156232 -96.4628123 98.74561031 -93.11328125 94.390625 C-91 92 -91 92 -88.98046875 91.046875 C-86.76478083 90.08710121 -86.76478083 90.08710121 -85.43652344 87.50708008 C-82.31624327 82.68681177 -78.10102926 78.85566999 -74.03515625 74.83984375 C-73.16483261 73.97235001 -72.29450897 73.10485626 -71.39781189 72.21107483 C-68.62405049 69.44846945 -65.84341629 66.69290109 -63.0625 63.9375 C-61.19550278 62.08054127 -59.32896134 60.22312416 -57.46289062 58.36523438 C-53.3002712 54.22242752 -49.13288537 50.0844746 -44.96243286 45.94955444 C-43.33269081 44.33050753 -41.70834388 42.70645386 -40.08764648 41.07836914 C-37.79650383 38.79740815 -35.41785554 36.64584679 -33 34.5 C-29.56188849 31.42245853 -26.22013908 28.30716986 -23 25 C-22.44699219 24.45730469 -21.89398437 23.91460937 -21.32421875 23.35546875 C-18.5775748 20.65587652 -15.99482241 17.99362758 -13.5625 15 C-11.42199828 12.49404677 -9.37635065 10.54701794 -6.875 8.4375 C-3.87369775 5.8892245 -1.74297917 3.59489455 0 0 Z " fill="#F1B31C" transform="translate(877,293)"/>
<path d="M0 0 C0.99 0.33 1.98 0.66 3 1 C5.14255793 0.61067144 5.14255793 0.61067144 7 0 C8.6627026 2.67478244 9.99983813 4.9995144 11 8 C12.32 7.34 13.64 6.68 15 6 C18.56215605 12.83286297 21.63458004 19.73748276 24.375 26.9375 C24.74238281 27.86884766 25.10976563 28.80019531 25.48828125 29.75976562 C25.82988281 30.65244141 26.17148437 31.54511719 26.5234375 32.46484375 C26.83200684 33.265271 27.14057617 34.06569824 27.45849609 34.89038086 C28 37 28 37 27 40 C26.34 39.67 25.68 39.34 25 39 C24.18789063 40.32257813 24.18789063 40.32257813 23.359375 41.671875 C21.09257766 45.07406995 18.34888714 47.5774148 15.25 50.25 C13.4641329 51.79276477 11.7036238 53.36687098 10 55 C10 55.66 10 56.32 10 57 C7.25232843 59.38554023 4.37941071 61.57943512 1.50390625 63.80859375 C-1.22123332 65.82099291 -1.22123332 65.82099291 -2 69 C-4.75511904 71.4063698 -7.63773183 73.60649368 -10.53125 75.84375 C-13.22419727 77.8284368 -13.22419727 77.8284368 -14 81 C-15.37482187 81.90304032 -16.75289407 82.80142488 -18.14471436 83.67803955 C-22.15952109 86.53873959 -25.50905908 90.22609376 -28.9765625 93.7109375 C-29.82423187 94.55669342 -30.67190125 95.40244934 -31.54525757 96.27383423 C-33.33113394 98.05835325 -35.11450171 99.84538589 -36.89550781 101.63476562 C-39.61563495 104.36559809 -42.34625824 107.08560485 -45.078125 109.8046875 C-46.81574578 111.54362995 -48.55274601 113.28319274 -50.2890625 115.0234375 C-51.50947739 116.23777969 -51.50947739 116.23777969 -52.75454712 117.47665405 C-57.43641383 122.17606181 -57.43641383 122.17606181 -61.35693359 127.49853516 C-63 130 -63 130 -66 131 C-67.47585712 132.67893048 -68.88406098 134.41798809 -70.25 136.1875 C-72.97509173 139.62503402 -75.57555297 142.69228213 -79 145.4375 C-82.28116451 148.16408318 -82.28116451 148.16408318 -83 152 C-82.01 152.99 -82.01 152.99 -81 154 C-87.95958602 153.39569441 -94.25077566 151.05013933 -100.8125 148.75 C-101.93720703 148.36714844 -103.06191406 147.98429688 -104.22070312 147.58984375 C-111.10003258 145.19946663 -117.58425139 142.44911227 -124 139 C-123.67 138.01 -123.34 137.02 -123 136 C-122.01 136 -121.02 136 -120 136 C-119.896875 135.401875 -119.79375 134.80375 -119.6875 134.1875 C-118.91123545 131.71756736 -117.92911079 130.67748765 -116 129 C-116.7763932 125.9254644 -116.7763932 125.9254644 -119 124 C-118.60495559 121.0371669 -117.40182371 118.61673759 -116 116 C-115.34 116.33 -114.68 116.66 -114 117 C-114 116.01 -114 115.02 -114 114 C-112.515 113.01 -112.515 113.01 -111 112 C-111.33 110.68 -111.66 109.36 -112 108 C-110.8553125 107.4121875 -110.8553125 107.4121875 -109.6875 106.8125 C-106.67855405 104.78321087 -105.83289293 103.07926013 -104 100 C-102.0887434 98.19722013 -100.06882604 96.62865029 -98 95 C-97.01 94.01 -97.01 94.01 -96 93 C-94.68 94.98 -93.36 96.96 -92 99 C-92.04125 97.88625 -92.0825 96.7725 -92.125 95.625 C-92 92 -92 92 -90 90 C-89.01 90.495 -89.01 90.495 -88 91 C-87.855625 90.21625 -87.71125 89.4325 -87.5625 88.625 C-87 86 -87 86 -86 84 C-85.34 84 -84.68 84 -84 84 C-83.67 83.34 -83.34 82.68 -83 82 C-82.01 82.99 -81.02 83.98 -80 85 C-79.01 84.67 -78.02 84.34 -77 84 C-76.67 83.34 -76.34 82.68 -76 82 C-76.99 81.505 -76.99 81.505 -78 81 C-77.34 81 -76.68 81 -76 81 C-75.505 79.02 -75.505 79.02 -75 77 C-70.46298506 75.54815522 -66.81938524 74.76490804 -62 75 C-64.07553648 74.4465236 -65.84365964 74 -68 74 C-68 72.02 -68 70.04 -68 68 C-67.34 67.67 -66.68 67.34 -66 67 C-65.01 67.99 -65.01 67.99 -64 69 C-64.33 67.35 -64.66 65.7 -65 64 C-64.01 64.33 -63.02 64.66 -62 65 C-62.495 63.02 -62.495 63.02 -63 61 C-62.38125 61.20625 -61.7625 61.4125 -61.125 61.625 C-60.073125 61.810625 -60.073125 61.810625 -59 62 C-58.01 61.01 -58.01 61.01 -57 60 C-57 59.01 -57 58.02 -57 57 C-55 57 -55 57 -53.375 58.5 C-52.92125 58.995 -52.4675 59.49 -52 60 C-53.32 57.69 -54.64 55.38 -56 53 C-54.35 52.67 -52.7 52.34 -51 52 C-50.67 50.68 -50.34 49.36 -50 48 C-47 49 -47 49 -45 52 C-42.44816596 53.20450304 -42.44816596 53.20450304 -40 54 C-39.34 53.01 -38.68 52.02 -38 51 C-38.639375 50.443125 -39.27875 49.88625 -39.9375 49.3125 C-42.21489937 46.75905222 -42.73408687 45.36823292 -43 42 C-42.505 41.01 -42.505 41.01 -42 40 C-41.01 39.71125 -40.02 39.4225 -39 39.125 C-38.01 38.75375 -37.02 38.3825 -36 38 C-35.62975353 36.67644175 -35.3033692 35.34046858 -35 34 C-34.03350353 32.38292557 -33.00864412 30.79974043 -31.9375 29.25 C-31.38964844 28.45078125 -30.84179688 27.6515625 -30.27734375 26.828125 C-29.85582031 26.22484375 -29.43429687 25.6215625 -29 25 C-27.68 25.66 -26.36 26.32 -25 27 C-24.34 26.34 -23.68 25.68 -23 25 C-21.68 26.32 -20.36 27.64 -19 29 C-20.32 27.02 -21.64 25.04 -23 23 C-22.34 22.34 -21.68 21.68 -21 21 C-20.01 21 -19.02 21 -18 21 C-18.495 19.515 -18.495 19.515 -19 18 C-18.21625 17.855625 -17.4325 17.71125 -16.625 17.5625 C-14.03578982 17.12201075 -14.03578982 17.12201075 -12 16 C-12.495 14.02 -12.495 14.02 -13 12 C-12.01 11.34 -11.02 10.68 -10 10 C-9.01 12.97 -9.01 12.97 -8 16 C-8.495 16.495 -8.495 16.495 -9 17 C-7.35 17.33 -5.7 17.66 -4 18 C-3.01 16.515 -3.01 16.515 -2 15 C-3.32 15 -4.64 15 -6 15 C-7.41377341 12.36095629 -8.37240135 9.92879371 -9 7 C-7.68 6.01 -6.36 5.02 -5 4 C-4.01 4.495 -4.01 4.495 -3 5 C-0.92140082 2.73675716 -0.92140082 2.73675716 0 0 Z " fill="#E7A822" transform="translate(852,255)"/>
<path d="M0 0 C0.33 0.99 0.66 1.98 1 3 C-1.475 4.98 -1.475 4.98 -4 7 C-4.66 6.34 -5.32 5.68 -6 5 C-5.9175 5.7425 -5.835 6.485 -5.75 7.25 C-6.07464627 10.82110901 -7.32790309 11.72085852 -10 14 C-10.99 14.99 -10.99 14.99 -12 16 C-13 17 -13 17 -16 19 C-16.66 18.34 -17.32 17.68 -18 17 C-17.67 18.32 -17.34 19.64 -17 21 C-17.99 21.66 -18.98 22.32 -20 23 C-20.66 22.34 -21.32 21.68 -22 21 C-23.9451 23.91765 -24.45276317 25.62537285 -25 29 C-29.68613845 26.41555932 -33.95477461 23.64833967 -38.25 20.4375 C-46.76014589 14.24515338 -55.78861776 9.07005803 -65 4 C-66.30904297 3.27659424 -66.30904297 3.27659424 -67.64453125 2.53857422 C-96.77060293 -13.43123824 -127.55649682 -24.60593339 -159 -35 C-159 -35.33 -159 -35.66 -159 -36 C-107.39289407 -42.40568682 -41.90443464 -32.93625071 0 0 Z " fill="#CA8B29" transform="translate(713,257)"/>
<path d="M0 0 C0.66 0 1.32 0 2 0 C19.45102828 40.25230814 19.45102828 40.25230814 26 56 C30.17959767 47.95761864 33.80560892 39.70016408 37.375 31.375 C37.95044539 30.03876207 38.52621223 28.70266252 39.10229492 27.36669922 C40.22686164 24.75854582 41.35035774 22.14993569 42.47314453 19.54101562 C44.40433674 15.06228013 46.35330423 10.59154388 48.3125 6.125 C48.59593262 5.47837402 48.87936523 4.83174805 49.17138672 4.16552734 C49.78041151 2.77679315 50.39010153 1.38835071 51 0 C51.66 0 52.32 0 53 0 C54.96242088 9.93462422 56.91872542 19.87043144 58.86727142 29.80778694 C59.77228926 34.42225882 60.67939372 39.03629981 61.59130859 43.64941406 C62.47158536 48.10288696 63.3463262 52.55741485 64.2172699 57.01272202 C64.55020489 58.71071835 64.88511911 60.40832786 65.22206116 62.1055336 C65.6943319 64.48618548 66.15949119 66.86812634 66.62304688 69.25048828 C66.76330795 69.94892349 66.90356903 70.6473587 67.04808044 71.36695862 C67.82709092 75.41678746 68 78.79560818 68 83 C64.04 83 60.08 83 56 83 C54.33498183 78.41011932 53.32791915 73.84875299 52.52734375 69.046875 C52.39936905 68.3054425 52.27139435 67.56401001 52.13954163 66.80010986 C51.7344458 64.45080484 51.3354409 62.10052672 50.9375 59.75 C50.53545176 57.38529308 50.1320245 55.02085554 49.7247467 52.65704346 C49.47224646 51.19075026 49.22282172 49.72392342 48.97679138 48.25653076 C48.35685005 44.51606492 48.35685005 44.51606492 47 41 C46.78115646 41.50476868 46.56231293 42.00953735 46.33683777 42.52960205 C44.05568699 47.78829654 41.76716757 53.04373876 39.47436523 58.29736328 C38.61993505 60.25780317 37.76737972 62.2190613 36.91674805 64.18115234 C35.69292683 67.00315691 34.46236767 69.82213894 33.23046875 72.640625 C32.85222458 73.51680481 32.47398041 74.39298462 32.08427429 75.29571533 C31.72412735 76.11626404 31.36398041 76.93681274 30.99291992 77.78222656 C30.67981369 78.50170471 30.36670746 79.22118286 30.04411316 79.96246338 C28.90739769 82.18070895 27.54529146 84.04918974 26 86 C21.12955738 76.58426254 16.83544917 66.97314417 12.625 57.25 C11.9781628 55.76289109 11.33102913 54.27591108 10.68359375 52.7890625 C9.11898488 49.19418066 7.55836078 45.59759449 6 42 C5.67 42 5.34 42 5 42 C4.79318604 43.17095215 4.58637207 44.3419043 4.37329102 45.54833984 C3.60673367 49.88369793 2.83609579 54.21832228 2.06420898 58.55273438 C1.73040815 60.43046557 1.39772123 62.30839512 1.06616211 64.18652344 C0.58999145 66.88268852 0.1098478 69.57811991 -0.37109375 72.2734375 C-0.51904892 73.11619232 -0.66700409 73.95894714 -0.81944275 74.82723999 C-1.88612829 80.77225659 -1.88612829 80.77225659 -3 83 C-6.96 83 -10.92 83 -15 83 C-16.54320725 79.9135855 -15.40865993 77.02658606 -14.75244141 73.76806641 C-14.60789017 73.02317459 -14.46333893 72.27828278 -14.31440735 71.51081848 C-13.83319165 69.03976705 -13.34245062 66.5707091 -12.8515625 64.1015625 C-12.51567212 62.38775275 -12.18034209 60.67383309 -11.84555054 58.95980835 C-10.96085216 54.43919807 -10.06794049 49.92024612 -9.17352295 45.40155029 C-8.44548569 41.71632242 -7.72318446 38.02998183 -7.00121498 34.34356117 C-6.14068575 29.95003026 -5.2778023 25.55696326 -4.4140625 21.1640625 C-4.24911915 20.32514088 -4.0841758 19.48621925 -3.91423416 18.62187576 C-3.44617836 16.2445779 -2.97656597 13.86759362 -2.50634766 11.49072266 C-2.36811081 10.78823898 -2.22987396 10.08575531 -2.08744812 9.36198425 C-1.46428271 6.22037944 -0.82044086 3.09662597 0 0 Z " fill="#0867AC" transform="translate(1202,853)"/>
<path d="M0 0 C4.29 0 8.58 0 13 0 C13 9.57 13 19.14 13 29 C23.23 29 33.46 29 44 29 C44 19.43 44 9.86 44 0 C48.29 0 52.58 0 57 0 C57 25.41 57 50.82 57 77 C52.71 77 48.42 77 44 77 C44 65.45 44 53.9 44 42 C33.77 42 23.54 42 13 42 C13 53.55 13 65.1 13 77 C8.71 77 4.42 77 0 77 C0 51.59 0 26.18 0 0 Z " fill="#0867AC" transform="translate(251,859)"/>
<path d="M0 0 C4.29 0 8.58 0 13 0 C13 9.57 13 19.14 13 29 C23.23 29 33.46 29 44 29 C44 19.43 44 9.86 44 0 C48.29 0 52.58 0 57 0 C57 25.41 57 50.82 57 77 C53.04 77 49.08 77 45 77 C44 76 44 76 43.88647461 72.76538086 C43.88663369 71.33185874 43.89232593 69.89833088 43.90234375 68.46484375 C43.9037587 67.71159317 43.90517365 66.95834259 43.90663147 66.18226624 C43.91224624 63.7673044 43.92480117 61.35243399 43.9375 58.9375 C43.9425131 57.30403779 43.94707634 55.67057414 43.95117188 54.03710938 C43.96137125 50.0246757 43.98094355 46.01244064 44 42 C33.77 42 23.54 42 13 42 C13 53.55 13 65.1 13 77 C9.04 77 5.08 77 1 77 C-0.67335996 75.32664004 -0.11962895 73.28612091 -0.12442017 71.05252075 C-0.12082489 70.3454599 -0.11722961 69.63839905 -0.11352539 68.90991211 C-0.11367142 68.16849472 -0.11381744 67.42707733 -0.1139679 66.66319275 C-0.11326865 64.20121379 -0.10547574 61.73930957 -0.09765625 59.27734375 C-0.09579211 57.57483461 -0.09436819 55.87232493 -0.09336853 54.16981506 C-0.08954302 49.68006927 -0.07971247 45.19035562 -0.06866455 40.70062256 C-0.05845113 36.12268509 -0.05387106 31.54474244 -0.04882812 26.96679688 C-0.03809022 17.97785043 -0.02101341 8.98892788 0 0 Z " fill="#0867AC" transform="translate(544,859)"/>
<path d="M0 0 C30.64423077 0 30.64423077 0 38.5625 7.38671875 C42.44010577 11.73848827 43.8069017 16.53799664 44.25 22.1875 C43.8059992 28.95851221 41.95757559 35.17641294 37 40 C35.6358353 40.90685853 34.25269574 41.78558437 32.85546875 42.640625 C32.13383545 43.08438477 31.41220215 43.52814453 30.66870117 43.98535156 C30.11802979 44.32018555 29.5673584 44.65501953 29 45 C30.80927746 47.58560353 32.62263591 50.16831495 34.4375 52.75 C34.97793945 53.51973145 35.51837891 54.28946289 36.07519531 55.08251953 C40.05924169 60.73187379 44.18325899 66.24393609 48.453125 71.6796875 C50 74 50 74 50 77 C44.94269243 77.98279661 39.93767958 78.76381039 35 77 C30.63988879 73.40055567 28.05098179 68.08885221 25.31152344 63.23339844 C23.20996544 59.65464704 20.76303615 56.34457437 18.3125 53 C16.889375 51.02 15.46625 49.04 14 47 C13.67 56.9 13.34 66.8 13 77 C8.71 77 4.42 77 0 77 C0 51.59 0 26.18 0 0 Z M13 12 C13 19.26 13 26.52 13 34 C22.01975068 34.55027423 22.01975068 34.55027423 29 31 C31.3904174 27.19027227 32.37226062 24.2345686 31.6875 19.8125 C30.65351744 16.56554257 29.39454652 15.17368833 26.4375 13.5 C21.78200695 11.2545231 18.75359538 12 13 12 Z " fill="#0867AC" transform="translate(761,859)"/>
<path d="M0 0 C0.66 0 1.32 0 2 0 C2.36536865 0.80590576 2.7307373 1.61181152 3.10717773 2.44213867 C11.47515638 20.89264386 19.88707491 39.32221397 28.36303711 57.72338867 C29.97683086 61.22725276 31.58582724 64.73328307 33.1918335 68.24072266 C33.91391301 69.81259939 34.64323772 71.3811432 35.37353516 72.94921875 C38 78.66462714 38 78.66462714 38 82 C33.71 82 29.42 82 25 82 C22 76 19 70 16 64 C5.77 63.67 -4.46 63.34 -15 63 C-15.99 65.97 -16.98 68.94 -18 72 C-19.54337179 75.41280804 -21.267494 78.67546147 -23 82 C-27.29 82 -31.58 82 -36 82 C-35.1591624 76.95497437 -34.29361872 74.04241835 -32.1484375 69.57421875 C-31.85747192 68.96171265 -31.56650635 68.34920654 -31.26672363 67.71813965 C-30.63768697 66.39556461 -30.00535351 65.07455351 -29.37005615 63.75497437 C-27.65822197 60.19821702 -25.97138005 56.62960803 -24.28125 53.0625 C-23.93005096 52.3229155 -23.57885193 51.58333099 -23.2170105 50.82133484 C-19.34480115 42.65165956 -15.60338964 34.42356901 -11.875 26.1875 C-11.25439821 24.81795081 -10.63379283 23.44840324 -10.01318359 22.07885742 C-8.86694279 19.54825587 -7.72167957 17.01721505 -6.57714844 14.48583984 C-4.39115428 9.65431902 -2.19654385 4.82673203 0 0 Z M0 29 C-1.50290811 32.47791766 -3.00183816 35.95753548 -4.5 39.4375 C-4.92925781 40.43072266 -5.35851562 41.42394531 -5.80078125 42.44726562 C-6.40986328 43.86362305 -6.40986328 43.86362305 -7.03125 45.30859375 C-7.59682617 46.62041626 -7.59682617 46.62041626 -8.17382812 47.95874023 C-9.06252872 49.78747369 -9.06252872 49.78747369 -9 51 C-2.4 51 4.2 51 11 51 C9.54962735 47.51731505 8.09018614 44.03894625 6.625 40.5625 C6.2125 39.56927734 5.8 38.57605469 5.375 37.55273438 C4.97539063 36.60849609 4.57578125 35.66425781 4.1640625 34.69140625 C3.79748535 33.81685791 3.4309082 32.94230957 3.05322266 32.04125977 C2.17152665 29.84001396 2.17152665 29.84001396 0 29 Z " fill="#0867AC" transform="translate(715,854)"/>
<path d="M0 0 C0.66 0 1.32 0 2 0 C10.67765091 18.768753 19.34980615 37.54005738 27.95507812 56.34213257 C28.64868547 57.85747419 29.34269242 59.37263297 30.03710938 60.88760376 C31.00515355 63.00002197 31.97158305 65.11317092 32.9375 67.2265625 C33.48277344 68.41846191 34.02804687 69.61036133 34.58984375 70.83837891 C38 78.48407202 38 78.48407202 38 82 C33.71 82 29.42 82 25 82 C23.84973914 79.58535319 22.70467795 77.16846682 21.5625 74.75 C21.23701172 74.06808594 20.91152344 73.38617187 20.57617188 72.68359375 C20.10727539 71.68779297 20.10727539 71.68779297 19.62890625 70.671875 C19.1968689 69.76066895 19.1968689 69.76066895 18.75610352 68.83105469 C18 67 18 67 17 63 C6.44 63 -4.12 63 -15 63 C-15.33 64.65 -15.66 66.3 -16 68 C-17.13871197 70.48222825 -18.30456915 72.89378543 -19.5625 75.3125 C-19.89185547 75.95767578 -20.22121094 76.60285156 -20.56054688 77.26757812 C-21.36824255 78.84785228 -22.18337613 80.42432105 -23 82 C-27.29 82 -31.58 82 -36 82 C-35.12467231 77.62336156 -33.86058919 74.13722675 -32 70.15625 C-31.69212555 69.48626984 -31.3842511 68.81628967 -31.06704712 68.12600708 C-30.04963861 65.91502296 -29.02479642 63.70756822 -28 61.5 C-27.28771947 59.95515927 -26.57597696 58.41007036 -25.86474609 56.86474609 C-24.36281279 53.60352328 -22.85791017 50.34369554 -21.35058594 47.08496094 C-17.80609386 39.42070435 -14.27918369 31.74836387 -10.75244141 24.07592773 C-9.63987362 21.65733355 -8.52521244 19.23971341 -7.41015625 16.82226562 C-6.72392351 15.33204729 -6.03772388 13.8418137 -5.3515625 12.3515625 C-5.04078766 11.67908478 -4.73001282 11.00660706 -4.40982056 10.31375122 C-2.84420407 6.90946652 -1.3537107 3.49422916 0 0 Z M0 29 C-1.50290811 32.47791766 -3.00183816 35.95753548 -4.5 39.4375 C-4.92925781 40.43072266 -5.35851562 41.42394531 -5.80078125 42.44726562 C-6.40986328 43.86362305 -6.40986328 43.86362305 -7.03125 45.30859375 C-7.59682617 46.62041626 -7.59682617 46.62041626 -8.17382812 47.95874023 C-9.06252872 49.78747369 -9.06252872 49.78747369 -9 51 C-2.4 51 4.2 51 11 51 C8.18478087 43.57094952 5.33549014 36.21136695 2 29 C1.34 29 0.68 29 0 29 Z " fill="#0867AC" transform="translate(408,854)"/>
<path d="M0 0 C14.19 0 28.38 0 43 0 C43 3.96 43 7.92 43 12 C33.1 12 23.2 12 13 12 C13 17.61 13 23.22 13 29 C22.9 29 32.8 29 43 29 C43 32.63 43 36.26 43 40 C42 41 42 41 39.22436523 41.11352539 C38.01466064 41.10828857 36.80495605 41.10305176 35.55859375 41.09765625 C34.25341797 41.09443359 32.94824219 41.09121094 31.60351562 41.08789062 C30.2148431 41.07953401 28.82617123 41.07106905 27.4375 41.0625 C26.04492344 41.05748666 24.65234519 41.05292347 23.25976562 41.04882812 C19.83982549 41.03699442 16.4199075 41.01905831 13 41 C13 48.92 13 56.84 13 65 C22.9 65 32.8 65 43 65 C43 68.96 43 72.92 43 77 C37.03686834 77.02464574 31.07376605 77.042834 25.1105957 77.05493164 C23.08031702 77.05997278 21.05004198 77.06680557 19.01977539 77.07543945 C16.10822653 77.08751467 13.1967255 77.09323034 10.28515625 77.09765625 C8.91485008 77.10539818 8.91485008 77.10539818 7.51686096 77.11329651 C5.34424573 77.11349168 3.17172704 77.06211805 1 77 C-0.67335996 75.32664004 -0.11962895 73.28612091 -0.12442017 71.05252075 C-0.12082489 70.3454599 -0.11722961 69.63839905 -0.11352539 68.90991211 C-0.11367142 68.16849472 -0.11381744 67.42707733 -0.1139679 66.66319275 C-0.11326865 64.20121379 -0.10547574 61.73930957 -0.09765625 59.27734375 C-0.09579211 57.57483461 -0.09436819 55.87232493 -0.09336853 54.16981506 C-0.08954302 49.68006927 -0.07971247 45.19035562 -0.06866455 40.70062256 C-0.05665668 35.31836359 -0.05204835 29.9360939 -0.04621124 24.55382538 C-0.03650072 16.36919454 -0.01734441 8.18463428 0 0 Z " fill="#0867AC" transform="translate(323,859)"/>
<path d="M0 0 C14.19 0 28.38 0 43 0 C43 3.96 43 7.92 43 12 C33.1 12 23.2 12 13 12 C13 17.61 13 23.22 13 29 C22.57 29 32.14 29 42 29 C42 32.96 42 36.92 42 41 C32.43 41 22.86 41 13 41 C13 48.92 13 56.84 13 65 C22.9 65 32.8 65 43 65 C43 68.96 43 72.92 43 77 C28.81 77 14.62 77 0 77 C0 51.59 0 26.18 0 0 Z " fill="#0867AC" transform="translate(820,859)"/>
<path d="M0 0 C14.19 0 28.38 0 43 0 C43 3.96 43 7.92 43 12 C32.77 12 22.54 12 12 12 C12 17.61 12 23.22 12 29 C21.9 29 31.8 29 42 29 C42 32.63 42 36.26 42 40 C41 41 41 41 38.22436523 41.11352539 C37.01466064 41.10828857 35.80495605 41.10305176 34.55859375 41.09765625 C33.25341797 41.09443359 31.94824219 41.09121094 30.60351562 41.08789062 C29.2148431 41.07953401 27.82617123 41.07106905 26.4375 41.0625 C25.04492344 41.05748666 23.65234519 41.05292347 22.25976562 41.04882812 C18.83982549 41.03699442 15.4199075 41.01905831 12 41 C12 48.92 12 56.84 12 65 C22.23 65 32.46 65 43 65 C43 68.63 43 72.26 43 76 C42 77 42 77 38.03100586 77.11352539 C36.25894395 77.11327421 34.48687716 77.10770978 32.71484375 77.09765625 C31.47788757 77.09614563 31.47788757 77.09614563 30.21594238 77.09460449 C27.12311419 77.08935592 24.03030576 77.07539477 20.9375 77.0625 C14.028125 77.041875 7.11875 77.02125 0 77 C0 51.59 0 26.18 0 0 Z " fill="#0867AC" transform="translate(1136,859)"/>
<path d="M0 0 C2.63588915 2.25422194 4.65690445 4.69545949 6.7265625 7.4765625 C5.33000953 10.97529521 4.01395766 12.18548081 0.6015625 13.7265625 C-0.12289062 14.06171875 -0.84734375 14.396875 -1.59375 14.7421875 C-2.14804687 14.98453125 -2.70234375 15.226875 -3.2734375 15.4765625 C-3.7684375 14.6928125 -4.2634375 13.9090625 -4.7734375 13.1015625 C-7.96418593 9.75127665 -10.65788758 8.63956519 -15.2734375 8.4765625 C-18.21740647 9.22665421 -21.08026373 10.28338873 -23.2734375 12.4765625 C-23.40912069 16.14000861 -23.43805176 18.98271971 -22.2734375 22.4765625 C-19.50682249 23.59743098 -19.50682249 23.59743098 -16.2734375 24.4765625 C-6.91966097 27.91875226 1.61808313 31.17086204 6.7265625 40.1640625 C9.81774751 47.1428056 9.9450715 54.00759381 7.2890625 61.1640625 C4.18301964 67.30982702 -1.07207096 71.76916701 -7.0859375 74.9765625 C-16.58120005 76.46601545 -24.23211049 76.13845942 -32.2734375 70.4765625 C-37.25147419 66.23523314 -40.15846034 60.94092448 -41.2734375 54.4765625 C-40.9434375 53.4865625 -40.6134375 52.4965625 -40.2734375 51.4765625 C-35.96308268 50.13399297 -32.79562102 49.4765625 -28.2734375 49.4765625 C-28.12648438 50.07984375 -27.97953125 50.683125 -27.828125 51.3046875 C-26.64115052 55.53413679 -25.79910953 57.98673175 -22.5234375 61.0390625 C-18.7237791 62.71968064 -16.38765389 63.00019004 -12.2734375 62.4765625 C-9.48442177 61.23699995 -7.82993163 60.19205496 -5.9609375 57.7890625 C-4.94261098 54.36378239 -4.50674788 50.96565003 -5.2734375 47.4765625 C-8.4221664 42.05422826 -13.19822217 40.30889638 -18.7109375 37.9140625 C-32.85781727 31.67564408 -32.85781727 31.67564408 -36.5390625 24.66015625 C-38.33972125 19.30606986 -38.36067469 13.4015192 -36.390625 8.1015625 C-32.86322947 1.93446038 -28.1057681 -1.48491628 -21.5234375 -3.8984375 C-13.80980987 -5.43817325 -6.4743303 -4.55601021 0 0 Z " fill="#0867AC" transform="translate(944.2734375,861.5234375)"/>
<path d="M0 0 C4.6297435 3.05721203 7.14557442 5.71443916 9 11 C7.54550599 12.0055761 6.08627557 13.00430435 4.625 14 C3.81289062 14.556875 3.00078125 15.11375 2.1640625 15.6875 C0 17 0 17 -2 17 C-2.144375 16.21625 -2.28875 15.4325 -2.4375 14.625 C-4.25869013 11.56540057 -4.86893162 11.39172416 -8.1875 10.5 C-13.08848911 9.65418414 -15.75275233 10.48632281 -20 13 C-22.25641931 15.73832802 -22.25641931 15.73832802 -21.875 18.4375 C-20.77690534 21.65334865 -19.60663014 22.80406078 -17 25 C-14.42218117 26.19684446 -11.88950796 27.27913218 -9.25 28.3125 C-1.1405033 31.67325818 6.16456827 35.65229564 10 44 C12.09299875 51.22084569 11.41347304 57.77742699 8.39453125 64.63671875 C4.76917769 70.78052521 -1.18996985 75.07049146 -8 77 C-15.66585103 77.85891888 -22.51002478 77.43460879 -29 73 C-34.21512506 68.40499702 -37.1153097 63.65184811 -39 57 C-39 55.68 -39 54.36 -39 53 C-37.58461283 52.66127487 -36.16762037 52.32925376 -34.75 52 C-33.96109375 51.814375 -33.1721875 51.62875 -32.359375 51.4375 C-30 51 -30 51 -26 51 C-25.81824219 51.61488281 -25.63648438 52.22976563 -25.44921875 52.86328125 C-25.07216797 54.07564453 -25.07216797 54.07564453 -24.6875 55.3125 C-24.32205078 56.51326172 -24.32205078 56.51326172 -23.94921875 57.73828125 C-22.93644577 60.15143168 -22.02964958 61.37126886 -20 63 C-15.60964237 64.46345254 -11.69383244 64.37640721 -7.1875 63.375 C-4.7669435 62.12167001 -4.7669435 62.12167001 -3.6875 59.3125 C-2.31449299 52.73020438 -2.31449299 52.73020438 -4.4375 46.56640625 C-7.95536968 43.04317397 -11.84459901 41.45442604 -16.375 39.5 C-23.34520317 36.46528077 -29.26829393 33.73333163 -33.875 27.4375 C-35.72895979 21.77262286 -36.1509936 15.58953935 -34.30859375 9.84375 C-31.21327367 3.93803469 -26.66368064 0.41837388 -20.5625 -1.8125 C-13.2126188 -3.95979417 -6.8788417 -3.25137491 0 0 Z " fill="#0867AC" transform="translate(1062,860)"/>
<path d="M0 0 C2.15625 1.875 2.15625 1.875 2.64453125 5.44921875 C2.61139248 6.82116376 2.55188595 8.1926753 2.46875 9.5625 C2.44619141 10.26439453 2.42363281 10.96628906 2.40039062 11.68945312 C2.34156647 13.4188833 2.25188389 15.14721438 2.15625 16.875 C0.00332106 15.80351916 -2.14275645 14.72118418 -4.28125 13.62109375 C-5.5496875 12.97333984 -5.5496875 12.97333984 -6.84375 12.3125 C-8.1121875 11.66087891 -8.1121875 11.66087891 -9.40625 10.99609375 C-15.92397515 7.99835799 -21.73289488 8.31323277 -28.46875 10.625 C-36.11626251 13.61705004 -40.49874333 17.65046307 -43.90625 25.2421875 C-46.79255898 33.34790522 -46.18114404 41.04177764 -42.84375 48.875 C-39.48177294 55.0193029 -34.58631629 59.81370236 -27.953125 62.3671875 C-19.70579654 64.35265546 -12.053202 63.24794629 -4.84375 58.875 C-3.14931653 57.57713607 -1.47123024 56.25589233 0.15625 54.875 C0.81625 54.875 1.47625 54.875 2.15625 54.875 C2.15625 59.825 2.15625 64.775 2.15625 69.875 C-8.56174721 75.37502488 -17.83696127 77.85265123 -29.95703125 75.19140625 C-41.56803417 71.23348305 -50.04151992 64.58103613 -55.65625 53.6875 C-60.25295226 44.24120248 -60.59719077 31.86533436 -57.28125 21.875 C-52.15757968 9.98591994 -43.5583315 2.62638723 -31.80859375 -2.14453125 C-20.88697981 -5.75629027 -10.52018742 -4.16183238 0 0 Z " fill="#0867AC" transform="translate(671.84375,861.125)"/>
<path d="M0 0 C4.95 0 9.9 0 15 0 C15.90363281 1.60230469 16.80726563 3.20460938 17.73828125 4.85546875 C18.92965239 6.96616565 20.12106058 9.07684164 21.3125 11.1875 C21.90740234 12.24259766 22.50230469 13.29769531 23.11523438 14.38476562 C23.69208984 15.40634766 24.26894531 16.42792969 24.86328125 17.48046875 C25.65665894 18.88655396 25.65665894 18.88655396 26.46606445 20.32104492 C27.94388517 22.90199777 29.46039414 25.45551378 31 28 C31.65226563 26.88882813 32.30453125 25.77765625 32.9765625 24.6328125 C46.65375792 1.34624208 46.65375792 1.34624208 48 0 C50.35313555 -0.07271741 52.70833668 -0.08370868 55.0625 -0.0625 C56.35285156 -0.05347656 57.64320313 -0.04445313 58.97265625 -0.03515625 C59.97167969 -0.02355469 60.97070312 -0.01195312 62 0 C60.31384505 4.64831906 57.97069488 8.8251506 55.5625 13.125 C55.12945557 13.92357422 54.69641113 14.72214844 54.25024414 15.54492188 C52.01413365 19.62349797 49.7156232 23.48282976 46.9296875 27.2109375 C36.75199309 41.43969228 37.59803061 56.22382908 38.03076172 73.06689453 C38 76 38 76 37 77 C34.98035801 77.07244053 32.95832876 77.08377188 30.9375 77.0625 C29.83277344 77.05347656 28.72804688 77.04445313 27.58984375 77.03515625 C26.73519531 77.02355469 25.88054688 77.01195312 25 77 C25.05349609 76.11666992 25.10699219 75.23333984 25.16210938 74.32324219 C26.25362807 51.63021649 23.09489868 36.97723679 10.14404297 18.14208984 C7.83283584 14.75502132 5.63255342 11.31667423 3.47265625 7.83203125 C2.47310913 6.22871948 2.47310913 6.22871948 1.45336914 4.59301758 C0 2 0 2 0 0 Z " fill="#0867AC" transform="translate(957,859)"/>
<path d="M0 0 C15.84 0 31.68 0 48 0 C48 3.96 48 7.92 48 12 C42.06 12 36.12 12 30 12 C30 33.45 30 54.9 30 77 C26.04 77 22.08 77 18 77 C17 76 17 76 16.87974548 73.45005798 C16.88196609 72.31532547 16.88418671 71.18059296 16.88647461 70.01147461 C16.88655014 68.73022202 16.88662567 67.44896942 16.88670349 66.12889099 C16.89181091 64.72004152 16.89702691 63.31119244 16.90234375 61.90234375 C16.90420798 60.46887766 16.90563186 59.03541093 16.90663147 57.60194397 C16.91045628 53.82240043 16.92028623 50.0428951 16.93133545 46.2633667 C16.94155037 42.40930702 16.94612926 38.55524118 16.95117188 34.70117188 C16.96190855 27.13409512 16.97950503 19.56705777 17 12 C11.39 12 5.78 12 0 12 C0 8.04 0 4.08 0 0 Z " fill="#0867AC" transform="translate(488,859)"/>
<path d="M0 0 C15.51 0 31.02 0 47 0 C47 3.96 47 7.92 47 12 C41.39 12 35.78 12 30 12 C30.00785522 14.90026978 30.00785522 14.90026978 30.01586914 17.85913086 C30.03196655 24.23337702 30.04347217 30.60761838 30.05181217 36.98187923 C30.05704026 40.84820118 30.06413654 44.71450121 30.07543945 48.58081055 C30.086271 52.30903401 30.0922774 56.03723634 30.09487724 59.76547432 C30.09673101 61.19089656 30.10035071 62.61631759 30.10573006 64.04173088 C30.11294393 66.03163408 30.11340808 68.02155834 30.11352539 70.01147461 C30.115746 71.14620712 30.11796661 72.28093964 30.12025452 73.45005798 C30 76 30 76 29 77 C25.04 77 21.08 77 17 77 C17 55.55 17 34.1 17 12 C11.39 12 5.78 12 0 12 C0 8.04 0 4.08 0 0 Z " fill="#0867AC" transform="translate(1079,859)"/>
<path d="M0 0 C4.29 0 8.58 0 13 0 C13 21.45 13 42.9 13 65 C20.26 65 27.52 65 35 65 C35 68.96 35 72.92 35 77 C30.17619198 77.0246519 25.35242033 77.04283693 20.52856445 77.05493164 C18.88630536 77.05997174 17.24405077 77.06680378 15.60180664 77.07543945 C13.24624521 77.08751926 10.89074291 77.09323139 8.53515625 77.09765625 C7.79660904 77.10281754 7.05806183 77.10797882 6.2971344 77.11329651 C4.53101912 77.1134925 2.76502854 77.06194719 1 77 C-0.67335996 75.32664004 -0.11962895 73.28612091 -0.12442017 71.05252075 C-0.12082489 70.3454599 -0.11722961 69.63839905 -0.11352539 68.90991211 C-0.11367142 68.16849472 -0.11381744 67.42707733 -0.1139679 66.66319275 C-0.11326865 64.20121379 -0.10547574 61.73930957 -0.09765625 59.27734375 C-0.09579211 57.57483461 -0.09436819 55.87232493 -0.09336853 54.16981506 C-0.08954302 49.68006927 -0.07971247 45.19035562 -0.06866455 40.70062256 C-0.05845113 36.12268509 -0.05387106 31.54474244 -0.04882812 26.96679688 C-0.03809022 17.97785043 -0.02101341 8.98892788 0 0 Z " fill="#0867AC" transform="translate(454,859)"/>
<path d="M0 0 C9.9 0 19.8 0 30 0 C30 0.33 30 0.66 30 1 C28.02 1.33 26.04 1.66 24 2 C23.63019987 6.04622502 23.63019987 6.04622502 26 9 C25.01 9.99 24.02 10.98 23 12 C15.41 8.7 7.82 5.4 0 2 C0 1.34 0 0.68 0 0 Z " fill="#D3972A" transform="translate(662,363)"/>
<path d="M0 0 C0.66 0.99 1.32 1.98 2 3 C1.34 4.32 0.68 5.64 0 7 C-1.9375 6.6875 -1.9375 6.6875 -4 6 C-4.33 5.01 -4.66 4.02 -5 3 C-4.67 2.34 -4.34 1.68 -4 1 C-1.9375 0.375 -1.9375 0.375 0 0 Z " fill="#BE8831" transform="translate(888,12)"/>
<path d="M0 0 C1.61949011 2.57213134 2.04408751 3.67669159 1.625 6.75 C1.41875 7.4925 1.2125 8.235 1 9 C-1.97 8.67 -4.94 8.34 -8 8 C-7.01 7.67 -6.02 7.34 -5 7 C-4.67 6.01 -4.34 5.02 -4 4 C-3.01 4 -2.02 4 -1 4 C-0.67 2.68 -0.34 1.36 0 0 Z " fill="#E5AB23" transform="translate(790,405)"/>
<path d="M0 0 C2 1.8125 2 1.8125 4 4 C4 4.99 4 5.98 4 7 C2.68 7.33 1.36 7.66 0 8 C-3 3.25 -3 3.25 -3 1 C-2.01 0.67 -1.02 0.34 0 0 Z " fill="#C99430" transform="translate(721,314)"/>
<path d="M0 0 C-3.04031726 1.72120049 -5.59385551 2.39424159 -9.0625 2.75 C-10.34833984 2.89695313 -10.34833984 2.89695313 -11.66015625 3.046875 C-14 3 -14 3 -17 1 C-11.29309366 0.00749455 -5.78591511 -0.10477512 0 0 Z " fill="#D09127" transform="translate(964,0)"/>
<path d="M0 0 C1.74627478 2.61941217 2.38722388 4.03824877 3 7 C2.01 7.33 1.02 7.66 0 8 C-0.33 8.66 -0.66 9.32 -1 10 C-2.15837626 5.94568308 -1.83691257 3.78187881 0 0 Z " fill="#DAA129" transform="translate(864,254)"/>
<path d="M0 0 C2.95183101 2.95183101 3.08663988 5.95511947 4 10 C3.01 9.34 2.02 8.68 1 8 C1 7.01 1 6.02 1 5 C0.34 5 -0.32 5 -1 5 C-0.67 3.35 -0.34 1.7 0 0 Z " fill="#DAA328" transform="translate(880,295)"/>
</svg>
